<?xml version="1.0" encoding="UTF-8" standalone="no"?>
<!-- Created with Inkscape (http://www.inkscape.org/) -->

<svg
   xmlns:dc="http://purl.org/dc/elements/1.1/"
   xmlns:cc="http://creativecommons.org/ns#"
   xmlns:rdf="http://www.w3.org/1999/02/22-rdf-syntax-ns#"
   xmlns:svg="http://www.w3.org/2000/svg"
   xmlns="http://www.w3.org/2000/svg"
   xmlns:xlink="http://www.w3.org/1999/xlink"
   xmlns:sodipodi="http://sodipodi.sourceforge.net/DTD/sodipodi-0.dtd"
   xmlns:inkscape="http://www.inkscape.org/namespaces/inkscape"
   version="1.1"
   width="474"
   height="45.999786"
   id="svg2"
   inkscape:version="0.48.4 r9939"
   sodipodi:docname="home.svg"
   inkscape:export-filename="/home/daniel/ChicagoFire/images/footer.png"
   inkscape:export-xdpi="90"
   inkscape:export-ydpi="90">
  <sodipodi:namedview
     pagecolor="#ffffff"
     bordercolor="#666666"
     borderopacity="1"
     objecttolerance="10"
     gridtolerance="10"
     guidetolerance="10"
     inkscape:pageopacity="1"
     inkscape:pageshadow="2"
     inkscape:window-width="1440"
     inkscape:window-height="845"
     id="namedview201"
     showgrid="false"
     showborder="false"
     inkscape:zoom="1"
     inkscape:cx="474.64013"
     inkscape:cy="202.38278"
     inkscape:window-x="0"
     inkscape:window-y="30"
     inkscape:window-maximized="1"
     inkscape:current-layer="svg2"
     borderlayer="false"
     inkscape:showpageshadow="false"
     showguides="false"
     inkscape:guide-bbox="true"
     fit-margin-top="0"
     fit-margin-left="0"
     fit-margin-right="0"
     fit-margin-bottom="0">
    <sodipodi:guide
       orientation="0,1"
       position="685.99999,1257.9999"
       id="guide4727" />
    <sodipodi:guide
       orientation="0,1"
       position="850.99999,1128.9999"
       id="guide4729" />
    <sodipodi:guide
       orientation="0,1"
       position="735.99999,1038.9999"
       id="guide4731" />
    <sodipodi:guide
       orientation="0,1"
       position="699.99999,908.99989"
       id="guide4733" />
  </sodipodi:namedview>
  <defs
     id="defs4">
    <linearGradient
       id="linearGradient4291-5"
       inkscape:collect="always">
      <stop
         id="stop4293-3"
         offset="0"
         style="stop-color:#000000;stop-opacity:1;" />
      <stop
         id="stop4295-0"
         offset="1"
         style="stop-color:#000000;stop-opacity:0;" />
    </linearGradient>
    <mask
       maskUnits="userSpaceOnUse"
       id="mask4682">
      <path
         sodipodi:type="arc"
         style="color:#000000;fill:#ffffff;fill-opacity:1;fill-rule:nonzero;stroke:none;stroke-width:2;marker:none;visibility:visible;display:inline;overflow:visible;enable-background:accumulate"
         id="path4684"
         sodipodi:cx="189"
         sodipodi:cy="782"
         sodipodi:rx="60"
         sodipodi:ry="97.082039"
         d="m 249,782 a 60,97.082039 0 1 1 -120,0 60,97.082039 0 1 1 120,0 z"
         transform="matrix(1.0666667,0,0,0.65923626,60.994232,406.57362)" />
    </mask>
    <mask
       maskUnits="userSpaceOnUse"
       id="mask4693">
      <path
         sodipodi:type="arc"
         style="color:#000000;fill:#ffffff;fill-opacity:1;fill-rule:nonzero;stroke:none;stroke-width:2;marker:none;visibility:visible;display:inline;overflow:visible;enable-background:accumulate"
         id="path4695"
         sodipodi:cx="189"
         sodipodi:cy="782"
         sodipodi:rx="60"
         sodipodi:ry="97.082039"
         d="m 249,782 a 60,97.082039 0 1 1 -120,0 60,97.082039 0 1 1 120,0 z"
         transform="matrix(1.0666667,0,0,0.65923626,-71.005768,236.57356)" />
    </mask>
    <mask
       maskUnits="userSpaceOnUse"
       id="mask4704">
      <path
         sodipodi:type="arc"
         style="color:#000000;fill:#ffffff;fill-opacity:1;fill-rule:nonzero;stroke:none;stroke-width:2;marker:none;visibility:visible;display:inline;overflow:visible;enable-background:accumulate"
         id="path4706"
         sodipodi:cx="189"
         sodipodi:cy="782"
         sodipodi:rx="60"
         sodipodi:ry="97.082039"
         d="m 249,782 a 60,97.082039 0 1 1 -120,0 60,97.082039 0 1 1 120,0 z"
         transform="matrix(1.0666667,0,0,0.65923626,307.39999,264.47724)" />
    </mask>
    <mask
       maskUnits="userSpaceOnUse"
       id="mask4715">
      <path
         sodipodi:type="arc"
         style="color:#000000;fill:#ffffff;fill-opacity:1;fill-rule:nonzero;stroke:none;stroke-width:2;marker:none;visibility:visible;display:inline;overflow:visible;enable-background:accumulate"
         id="path4717"
         sodipodi:cx="189"
         sodipodi:cy="782"
         sodipodi:rx="60"
         sodipodi:ry="97.082039"
         d="m 249,782 a 60,97.082039 0 1 1 -120,0 60,97.082039 0 1 1 120,0 z"
         transform="matrix(1.0666667,0,0,0.65923626,540.99423,400.57364)" />
    </mask>
    <mask
       maskUnits="userSpaceOnUse"
       id="mask4813">
      <rect
         style="color:#000000;fill:#ffffff;fill-opacity:1;fill-rule:nonzero;stroke:none;stroke-width:2;marker:none;visibility:visible;display:inline;overflow:visible;enable-background:accumulate"
         id="rect4815"
         width="394.14633"
         height="640"
         x="-11.073166"
         y="1257" />
    </mask>
    <clipPath
       id="clipPath4831"
       clipPathUnits="userSpaceOnUse">
      <path
         id="path4833"
         d="m 0,113.386 113.386,0 L 113.386,0 0,0 0,113.386 z"
         inkscape:connector-curvature="0" />
    </clipPath>
    <filter
       inkscape:collect="always"
       id="filter4759"
       color-interpolation-filters="sRGB">
      <feGaussianBlur
         inkscape:collect="always"
         stdDeviation="1.6687069"
         id="feGaussianBlur4761" />
    </filter>
    <mask
       maskUnits="userSpaceOnUse"
       id="mask4847">
      <rect
         style="color:#000000;fill:#ffffff;fill-opacity:1;fill-rule:nonzero;stroke:none;stroke-width:0.99999994;marker:none;visibility:visible;display:inline;overflow:visible;enable-background:accumulate"
         id="rect4849"
         width="1200"
         height="800"
         x="0"
         y="0" />
    </mask>
    <filter
       inkscape:collect="always"
       id="filter4023"
       color-interpolation-filters="sRGB">
      <feGaussianBlur
         inkscape:collect="always"
         stdDeviation="0.96"
         id="feGaussianBlur4025" />
    </filter>
    <linearGradient
       inkscape:collect="always"
       xlink:href="#linearGradient4291-5"
       id="linearGradient4253"
       gradientUnits="userSpaceOnUse"
       gradientTransform="matrix(2.8708133,0,0,1,-100.47847,-52)"
       x1="268"
       y1="116.01807"
       x2="268"
       y2="118.98985" />
  </defs>
  <metadata
     id="metadata7">
    <rdf:RDF>
      <cc:Work
         rdf:about="">
        <dc:format>image/svg+xml</dc:format>
        <dc:type
           rdf:resource="http://purl.org/dc/dcmitype/StillImage" />
        <dc:title></dc:title>
      </cc:Work>
    </rdf:RDF>
  </metadata>
  <g
     id="g3968"
     transform="matrix(1.0101393,0,0,1.0101393,-93.804901,-2284.2513)">
    <path
       style="font-size:85.65730286px;font-style:normal;font-weight:normal;line-height:125%;letter-spacing:0px;word-spacing:0px;fill:#ffffff;fill-opacity:1;stroke:none;font-family:Sans"
       d="m 219.32087,2274.6611 c -1.14441,1e-4 -2.18266,0.2246 -3.151,0.6876 -0.96835,0.4409 -1.82279,1.0501 -2.52704,1.8437 -0.68224,0.7936 -1.19496,1.7415 -1.5911,2.8437 -0.37413,1.1023 -0.56156,2.3244 -0.56156,3.625 0,1.3007 0.18743,2.4916 0.56156,3.5938 0.39614,1.1022 0.90886,2.0502 1.5911,2.8438 0.70425,0.7936 1.55869,1.4028 2.52704,1.8437 0.96834,0.4409 2.00659,0.6562 3.151,0.6563 0.88031,-1e-4 1.67961,-0.092 2.33985,-0.3126 0.68224,-0.2424 1.26291,-0.5167 1.74709,-0.7812 0.48416,-0.2645 0.86822,-0.4983 1.15433,-0.7188 0.3081,-0.2424 0.54148,-0.3437 0.71756,-0.3437 0.13203,0 0.35622,0.092 0.68635,0.3125 l 0.31198,-0.2812 -3.1822,-3.9688 -0.37437,0.25 c 0.13203,0.3307 0.21837,0.5736 0.21838,0.75 -1e-5,0.2425 -0.10473,0.5167 -0.28078,0.7812 -0.17607,0.2646 -0.40946,0.4984 -0.71755,0.7188 -0.30812,0.1984 -0.68299,0.3677 -1.12313,0.5 -0.44017,0.1323 -0.94732,0.1875 -1.49751,0.1875 -0.63823,0 -1.2281,-0.1509 -1.77828,-0.4375 -0.55021,-0.2866 -1.00779,-0.6897 -1.40392,-1.2188 -0.39615,-0.529 -0.72506,-1.1567 -0.96714,-1.9062 -0.22008,-0.7495 -0.31198,-1.5741 -0.31198,-2.5 0,-0.9259 0.0919,-1.7817 0.31198,-2.5312 0.22008,-0.7716 0.5398,-1.4085 0.93595,-1.9376 0.39613,-0.529 0.8537,-0.9321 1.40391,-1.2187 0.55018,-0.2866 1.14924,-0.4375 1.80948,-0.4375 0.55019,0 1.05734,0.064 1.49751,0.2188 0.46215,0.1322 0.84621,0.3108 1.15433,0.5312 0.3301,0.1984 0.56349,0.4138 0.71755,0.6562 0.17605,0.2426 0.28077,0.4487 0.28078,0.625 -10e-6,0.1103 -0.0459,0.298 -0.15599,0.5626 l 0.37438,0.1874 2.33985,-4 -0.34318,-0.2187 c -0.28611,0.2205 -0.48273,0.3438 -0.59276,0.3437 -0.13206,1e-4 -0.32868,-0.1048 -0.59276,-0.2812 -0.2421,-0.1984 -0.58939,-0.3953 -1.02954,-0.5938 -0.41816,-0.2204 -0.9345,-0.4173 -1.5287,-0.5937 -0.59422,-0.1984 -1.30719,-0.2812 -2.12147,-0.2813 z m -126.352013,0.2813 0,0.4687 c 0.572202,0.1985 0.928685,0.5187 1.060733,0.9376 l 4.461319,14.5312 c 0.04401,0.1764 0.06239,0.3089 0.0624,0.375 -6e-6,0.3307 -0.292158,0.5276 -0.842347,0.5938 l 0,0.4687 4.804488,0 0,-0.4687 c -0.44016,-0.1103 -0.65516,-0.2612 -0.65515,-0.4376 -10e-6,-0.1543 0.0276,-0.3328 0.0935,-0.5312 l 2.58944,-10.1562 2.99501,10.1562 c 0.022,0.044 0.0311,0.1398 0.0311,0.25 -1e-5,0.4188 -0.31054,0.6526 -0.90474,0.7188 l 0,0.4687 4.8357,0 0,-0.4687 c -0.46218,-0.088 -0.71758,-0.2576 -0.71756,-0.5 -2e-5,-0.088 -2e-5,-0.1527 0,-0.2188 0.022,-0.066 0.0403,-0.1618 0.0624,-0.25 l 4.18053,-14.5 c 0.0881,-0.2645 0.16153,-0.4615 0.24959,-0.5938 0.11001,-0.1542 0.31582,-0.2868 0.62396,-0.375 l 0,-0.4687 -4.39892,0 0,0.4687 c 0.50615,0.022 0.74873,0.2007 0.74875,0.5313 -2e-5,0.066 -0.009,0.1214 -0.0311,0.1875 -2e-5,0.066 -0.009,0.1618 -0.0311,0.25 l -2.93261,10.8438 -3.2446,-10.8438 c -0.044,-0.1763 -0.0624,-0.2996 -0.0624,-0.3438 -1e-5,-0.4188 0.2977,-0.6249 0.93594,-0.625 l 0,-0.4687 -4.39892,0 0,0.4687 c 0.55018,1e-4 0.81113,0.1878 0.81114,0.5626 -1e-5,0.066 -0.009,0.1213 -0.0311,0.1874 -10e-6,0.044 -0.009,0.1306 -0.0311,0.2188 l -2.90142,10.8438 -3.150995,-10.9688 c -0.02201,-0.044 -0.0312,-0.1306 -0.0312,-0.2188 -4e-6,-0.3526 0.264577,-0.5588 0.748753,-0.625 l 0,-0.4687 z m 235.170743,0 0,0.4375 c 0.37412,0.088 0.58912,0.2115 0.65515,0.3438 0.0881,0.1322 0.1248,0.3476 0.1248,0.6562 l 0,14.5 c 0,0.3086 -0.0367,0.524 -0.1248,0.6562 -0.066,0.1103 -0.28103,0.2244 -0.65515,0.3126 l 0,0.4687 4.92928,0 0,-0.4687 c -0.37413,-0.088 -0.62953,-0.2023 -0.71755,-0.3126 -0.0881,-0.1322 -0.1248,-0.3568 -0.12479,-0.6874 l 0,-5.9063 2.90141,0 2.90142,5.9375 c 0.13204,0.3086 0.21838,0.5056 0.21839,0.5938 -1e-5,0.1102 -0.0772,0.2059 -0.18719,0.25 -0.11005,0.044 -0.25709,0.081 -0.49917,0.125 l 0,0.4687 5.21007,0 0,-0.4687 c -0.55021,-0.1984 -0.93426,-0.5371 -1.15433,-1 l -3.1198,-6.25 c 1.18841,-0.3748 2.08881,-0.9472 2.68303,-1.7188 0.59419,-0.7715 0.87353,-1.7011 0.87355,-2.7812 -2e-5,-1.6534 -0.49436,-2.8995 -1.52871,-3.7813 -1.01237,-0.9038 -2.50264,-1.375 -4.46131,-1.375 z m 187.59374,0 0,0.4687 c 0.35212,0.088 0.56713,0.2116 0.65516,0.3438 0.11004,0.1102 0.18719,0.3164 0.18719,0.625 l 0,14.5 c 0,0.3086 -0.0772,0.524 -0.18719,0.6562 -0.0881,0.1103 -0.30304,0.2244 -0.65516,0.3126 l 0,0.4687 5.05408,0 0,-0.4687 c -0.35213,-0.088 -0.57632,-0.2023 -0.68636,-0.3126 -0.11004,-0.1322 -0.18719,-0.3476 -0.18718,-0.6562 l 0,-14.5 c -10e-6,-0.3086 0.0772,-0.5148 0.18718,-0.625 0.11004,-0.1322 0.33423,-0.2556 0.68636,-0.3438 l 0,-0.4687 z m -386.57477,2.2813 c -0.0881,0.3527 -0.21115,0.6085 -0.34318,0.7187 -0.11004,0.088 -0.31586,0.125 -0.62396,0.125 l -9.76498,0 0,0.4687 c 0.35212,0.088 0.57632,0.1803 0.68636,0.3126 0.11003,0.1322 0.15599,0.3476 0.15599,0.6562 l 0,11.375 c 0,0.3086 -0.0459,0.524 -0.15599,0.6562 -0.11004,0.1103 -0.33424,0.2244 -0.68636,0.3126 l 0,0.4687 10.01457,0 c 0.30809,0 0.51391,0.046 0.62396,0.1563 0.13203,0.1102 0.25513,0.3347 0.34317,0.6874 l 0.46798,0 0,-4.1874 -0.46798,0 c -0.0881,0.3527 -0.21114,0.5772 -0.34317,0.6874 -0.11005,0.1103 -0.31587,0.1563 -0.62396,0.1563 l -6.27081,0 0,-3.6563 3.43179,0 c 0.30809,1e-4 0.52309,0.046 0.65515,0.1563 0.13204,0.1102 0.24595,0.366 0.31198,0.7187 l 0.46797,0 0,-4.125 -0.46797,0 c -0.088,0.3528 -0.21113,0.6086 -0.34317,0.7188 -0.11005,0.088 -0.31587,0.125 -0.62396,0.125 l -3.43179,0 0,-3.2812 6.02122,0 c 0.3081,0 0.5231,0.046 0.65516,0.1562 0.13203,0.1102 0.24594,0.3661 0.31198,0.7188 l 0.43677,0 0,-4.125 z m 69.35322,0 c -0.0881,0.3527 -0.21115,0.6085 -0.34318,0.7187 -0.11005,0.088 -0.31586,0.125 -0.62396,0.125 l -9.76498,0 0,0.4687 c 0.35212,0.088 0.57632,0.1803 0.68635,0.3126 0.11004,0.1322 0.18719,0.3476 0.18719,0.6562 l 0,11.375 c 0,0.3086 -0.0772,0.524 -0.18719,0.6562 -0.11003,0.1103 -0.33423,0.2244 -0.68635,0.3126 l 0,0.4687 4.58611,0 0,-0.4687 c -0.35214,-0.066 -0.57632,-0.1803 -0.68636,-0.3126 -0.088,-0.1322 -0.1248,-0.3476 -0.12479,-0.6562 l 0,-4.7188 3.43178,0 c 0.3081,1e-4 0.5231,0.046 0.65516,0.1563 0.13204,0.1102 0.21475,0.366 0.28078,0.7187 l 0.46797,0 0,-4.125 -0.46797,0 c -0.088,0.3528 -0.17994,0.6086 -0.31198,0.7188 -0.11005,0.088 -0.31586,0.125 -0.62396,0.125 l -3.43178,0 0,-3.2812 5.99002,0 c 0.3081,0 0.5231,0.046 0.65516,0.1562 0.13203,0.1102 0.24594,0.3661 0.31198,0.7188 l 0.46797,0 0,-4.125 z m 157.98681,0 c -0.0881,0.3527 -0.17995,0.6085 -0.31198,0.7187 -0.11004,0.088 -0.31586,0.125 -0.62396,0.125 l -9.76498,0 0,0.4687 c 0.35212,0.088 0.57632,0.1803 0.68636,0.3126 0.11003,0.1322 0.15599,0.3476 0.15599,0.6562 l 0,11.375 c 0,0.3086 -0.0459,0.524 -0.15599,0.6562 -0.11004,0.1103 -0.33424,0.2244 -0.68636,0.3126 l 0,0.4687 10.01457,0 c 0.30809,0 0.51391,0.046 0.62396,0.1563 0.13203,0.1102 0.25513,0.3347 0.34318,0.6874 l 0.46797,0 0,-4.1874 -0.46797,0 c -0.0881,0.3527 -0.21115,0.5772 -0.34318,0.6874 -0.11005,0.1103 -0.31587,0.1563 -0.62396,0.1563 l -6.27081,0 0,-3.6563 3.43179,0 c 0.30809,1e-4 0.5231,0.046 0.65516,0.1563 0.13204,0.1102 0.24595,0.366 0.31198,0.7187 l 0.46797,0 0,-4.125 -0.46797,0 c -0.0881,0.3528 -0.21114,0.6086 -0.34318,0.7188 -0.11005,0.088 -0.31587,0.125 -0.62396,0.125 l -3.43179,0 0,-3.2812 6.02122,0 c 0.3081,0 0.5231,0.046 0.65516,0.1562 0.13203,0.1102 0.21474,0.3661 0.28078,0.7188 l 0.46797,0 0,-4.125 z m -209.58835,0.062 0,4.1876 0.46797,0 c 0.044,-0.3087 0.11753,-0.524 0.24958,-0.6563 0.15406,-0.1323 0.40945,-0.2187 0.71756,-0.2187 l 3.151,0 0,10.2812 c 0,0.3086 -0.0367,0.524 -0.12479,0.6562 -0.0881,0.1103 -0.31223,0.2244 -0.68636,0.3126 l 0,0.4687 4.55491,0 0,-0.4687 c -0.37413,-0.088 -0.59833,-0.2023 -0.68635,-0.3126 -0.0881,-0.1322 -0.156,-0.3476 -0.15599,-0.6562 l 0,-10.2812 3.36938,0 c 0.3081,0 0.5231,0.086 0.65516,0.2187 0.15404,0.1323 0.26795,0.3476 0.31198,0.6563 l 0.46797,0 0,-4.1876 -0.46797,0 c -0.044,0.3307 -0.11754,0.5681 -0.24958,0.6563 -0.13206,0.088 -0.38745,0.125 -0.71756,0.125 l -9.4218,0 c -0.33012,0 -0.58551,-0.037 -0.71756,-0.125 -0.13205,-0.088 -0.20556,-0.3256 -0.24958,-0.6563 z m 227.37123,0 0,4.1876 0.46797,0 c 0.044,-0.3087 0.11753,-0.524 0.24958,-0.6563 0.15406,-0.1323 0.40945,-0.2187 0.71756,-0.2187 l 3.151,0 0,10.2812 c 0,0.3086 -0.0367,0.524 -0.12479,0.6562 -0.0881,0.1103 -0.31223,0.2244 -0.68636,0.3126 l 0,0.4687 4.55491,0 0,-0.4687 c -0.37413,-0.088 -0.59833,-0.2023 -0.68635,-0.3126 -0.0881,-0.1322 -0.156,-0.3476 -0.15599,-0.6562 l 0,-10.2812 3.36938,0 c 0.3081,0 0.5231,0.086 0.65516,0.2187 0.15405,0.1323 0.26796,0.3476 0.31198,0.6563 l 0.46797,0 0,-4.1876 -0.46797,0 c -0.044,0.3307 -0.11754,0.5681 -0.24958,0.6563 -0.13206,0.088 -0.38745,0.125 -0.71756,0.125 l -9.4218,0 c -0.33012,0 -0.58551,-0.037 -0.71756,-0.125 -0.13205,-0.088 -0.20556,-0.3256 -0.24958,-0.6563 z m 92.81413,0 0,4.1876 0.46797,0 c 0.044,-0.3087 0.14874,-0.524 0.28079,-0.6563 0.15405,-0.1323 0.37825,-0.2187 0.68635,-0.2187 l 3.1822,0 0,10.2812 c 0,0.3086 -0.068,0.524 -0.15599,0.6562 -0.0881,0.1103 -0.31223,0.2244 -0.68635,0.3126 l 0,0.4687 4.55491,0 0,-0.4687 c -0.37414,-0.088 -0.59834,-0.2023 -0.68636,-0.3126 -0.0881,-0.1322 -0.1248,-0.3476 -0.12479,-0.6562 l 0,-10.2812 3.36939,0 c 0.30809,0 0.5231,0.086 0.65516,0.2187 0.15404,0.1323 0.23675,0.3476 0.28078,0.6563 l 0.46797,0 0,-4.1876 -0.46797,0 c -0.044,0.3307 -0.11755,0.5681 -0.24959,0.6563 -0.13206,0.088 -0.35624,0.125 -0.68635,0.125 l -9.45301,0 c -0.33012,0 -0.5543,-0.037 -0.68635,-0.125 -0.13205,-0.088 -0.23677,-0.3256 -0.28079,-0.6563 z m -134.86907,0.3438 3.24459,0 c 2.15675,0 3.24459,0.7786 3.2446,2.3438 -1e-5,0.8377 -0.27379,1.4377 -0.77995,1.8124 -0.48419,0.3528 -1.2523,0.5313 -2.30866,0.5313 l -3.40058,0 z m -193.52137,0.125 c -1.80465,0 -3.19019,0.3847 -4.18054,1.1562 -0.96835,0.7496 -1.46631,1.784 -1.46631,3.0626 0,0.5731 0.11391,1.0499 0.31198,1.4687 0.22008,0.4189 0.50861,0.7851 0.90475,1.0937 0.41814,0.3087 0.93449,0.6013 1.5287,0.8438 0.61621,0.2205 1.33837,0.4266 2.15266,0.625 0.66023,0.1764 1.23172,0.296 1.7159,0.4062 0.50616,0.1103 0.91779,0.252 1.24792,0.4063 0.33011,0.1543 0.56349,0.3421 0.71755,0.5625 0.17606,0.2204 0.28077,0.5315 0.28078,0.9062 -1e-5,1.2125 -1.01432,1.8126 -2.99501,1.8126 -0.66024,0 -1.2501,-0.046 -1.77828,-0.1563 -0.52819,-0.1323 -0.96739,-0.2924 -1.34152,-0.4687 -0.37414,-0.1764 -0.67547,-0.3641 -0.87354,-0.5626 -0.19807,-0.2204 -0.28079,-0.4173 -0.28079,-0.5937 0,-0.088 0.0459,-0.2759 0.15599,-0.5625 l -0.40557,-0.1562 -1.93428,4.1874 0.40558,0.1563 c 0.26409,-0.3086 0.48828,-0.4687 0.68635,-0.4687 0.15406,0 0.36906,0.077 0.65516,0.1874 0.2861,0.1103 0.65178,0.2207 1.09193,0.375 0.44016,0.1323 0.9565,0.2648 1.52871,0.375 0.5942,0.1103 1.2484,0.1563 1.99667,0.1563 1.93667,0 3.42694,-0.3939 4.46132,-1.1875 1.03435,-0.7936 1.55989,-1.9293 1.5599,-3.4062 -1e-5,-1.94 -1.13379,-3.2542 -3.40059,-3.9376 -0.79229,-0.2424 -1.53282,-0.4302 -2.21506,-0.5624 -0.68224,-0.1544 -1.26292,-0.274 -1.74709,-0.4063 -0.48417,-0.1543 -0.86823,-0.342 -1.15432,-0.5625 -0.2641,-0.2425 -0.40558,-0.5719 -0.40558,-0.9688 0,-0.4629 0.20581,-0.8292 0.62396,-1.0937 0.44015,-0.2645 1.09798,-0.4062 1.93428,-0.4063 1.07837,1e-4 1.90162,0.197 2.49584,0.5938 0.5942,0.3968 0.90474,0.7723 0.90475,1.125 -1e-5,0.1323 -0.0864,0.3292 -0.21839,0.5938 l 0.40557,0.1874 2.40225,-3.875 -0.34318,-0.1562 c -0.28611,0.2425 -0.5415,0.3438 -0.71755,0.3438 -0.13206,0 -0.32868,-0.046 -0.59276,-0.1563 -0.2641,-0.1102 -0.57101,-0.2427 -0.96714,-0.375 -0.37414,-0.1543 -0.84454,-0.2648 -1.37272,-0.375 -0.52819,-0.1102 -1.11805,-0.1875 -1.77828,-0.1875 z m 38.81034,0 c -1.01236,0 -1.94033,0.1878 -2.77662,0.5625 -0.8363,0.3527 -1.56765,0.8699 -2.18386,1.5313 -0.59421,0.6613 -1.04261,1.4399 -1.37272,2.3437 -0.33012,0.9038 -0.49916,1.8886 -0.49916,2.9687 0,1.0802 0.16904,2.1054 0.49916,3.0313 0.33011,0.9038 0.77851,1.6824 1.37272,2.3437 0.61621,0.6614 1.34756,1.1565 2.18386,1.5313 0.83629,0.3527 1.76426,0.5312 2.77662,0.5313 1.01236,-1e-4 1.94032,-0.1786 2.77663,-0.5313 0.83629,-0.3748 1.52724,-0.8699 2.12147,-1.5313 0.6162,-0.6613 1.10497,-1.4399 1.4351,-2.3437 0.3301,-0.9038 0.49916,-1.929 0.49917,-3.0313 -1e-5,-1.0801 -0.16907,-2.0649 -0.49917,-2.9687 -0.33013,-0.9038 -0.8189,-1.6824 -1.4351,-2.3437 -0.59423,-0.6614 -1.28518,-1.1786 -2.12147,-1.5313 -0.83631,-0.3747 -1.76427,-0.5625 -2.77663,-0.5625 z m 83.26754,0 c -0.99036,0 -1.90914,0.1878 -2.74542,0.5625 -0.8143,0.3527 -1.49606,0.8699 -2.09027,1.5313 -0.59421,0.6613 -1.08299,1.4399 -1.43511,2.3437 -0.33012,0.9038 -0.49917,1.8886 -0.49917,2.9687 0,1.0802 0.16905,2.1054 0.49917,3.0313 0.35212,0.9038 0.8409,1.6824 1.43511,2.3437 0.61621,0.6614 1.31637,1.1565 2.15266,1.5313 0.83629,0.3748 1.75507,0.5625 2.74543,0.5625 0.79227,0 1.48686,-0.083 2.05907,-0.2812 0.5722,-0.1764 1.03896,-0.3734 1.43511,-0.5938 0.41813,-0.2425 0.75624,-0.4486 0.99833,-0.625 0.26408,-0.1984 0.4699,-0.3125 0.62397,-0.3125 0.13203,0 0.35622,0.1233 0.68635,0.3437 l 0.31198,-0.3124 -2.99501,-3.6563 -0.34318,0.25 c 0.13204,0.3307 0.18718,0.6141 0.18719,0.8125 -10e-6,0.485 -0.25177,0.9065 -0.77995,1.2812 -0.50619,0.3528 -1.19158,0.5313 -2.02787,0.5313 -1.27645,0 -2.25957,-0.4215 -2.96381,-1.2813 -0.70426,-0.8597 -1.06074,-2.0818 -1.06074,-3.625 0,-1.521 0.35648,-2.7119 1.06074,-3.5937 0.72625,-0.9038 1.6634,-1.3437 2.80782,-1.3437 0.48416,0 0.90498,0.055 1.27912,0.1874 0.37412,0.1103 0.69384,0.2612 0.93594,0.4376 0.26408,0.1763 0.4607,0.3733 0.59276,0.5937 0.13204,0.1984 0.18718,0.3862 0.18719,0.5625 -1e-5,0.088 -0.0459,0.2667 -0.15599,0.5312 l 0.37438,0.1563 2.21506,-3.7187 -0.34318,-0.1876 c -0.13206,0.088 -0.22396,0.1435 -0.31198,0.1876 -0.0881,0.044 -0.20196,0.094 -0.31198,0.094 -0.13206,0 -0.31031,-0.086 -0.53037,-0.2187 -0.22009,-0.1323 -0.49023,-0.2832 -0.84235,-0.4376 -0.35213,-0.1763 -0.81333,-0.3052 -1.34151,-0.4374 -0.50619,-0.1323 -1.10525,-0.2188 -1.80949,-0.2188 z m 47.42101,0 c -1.01237,0 -1.94034,0.1878 -2.77663,0.5625 -0.8363,0.3527 -1.56765,0.8699 -2.18386,1.5313 -0.59421,0.6613 -1.0426,1.4399 -1.37271,2.3437 -0.33012,0.9038 -0.49917,1.8886 -0.49917,2.9687 0,1.0802 0.16905,2.1054 0.49917,3.0313 0.33011,0.9038 0.7785,1.6824 1.37271,2.3437 0.61621,0.6614 1.34756,1.1565 2.18386,1.5313 0.83629,0.3527 1.76426,0.5312 2.77663,0.5313 1.01235,-1e-4 1.94031,-0.1786 2.77662,-0.5313 0.83629,-0.3748 1.52725,-0.8699 2.12147,-1.5313 0.6162,-0.6613 1.10498,-1.4399 1.43511,-2.3437 0.3301,-0.9038 0.49915,-1.929 0.49916,-3.0313 -1e-5,-1.0801 -0.16906,-2.0649 -0.49916,-2.9687 -0.33013,-0.9038 -0.81891,-1.6824 -1.43511,-2.3437 -0.59422,-0.6614 -1.28518,-1.1786 -2.12147,-1.5313 -0.83631,-0.3747 -1.76427,-0.5625 -2.77662,-0.5625 z m 57.87234,0 c -1.80465,0 -3.19019,0.3847 -4.18054,1.1562 -0.96834,0.7496 -1.4663,1.784 -1.4663,3.0626 0,0.5731 0.11391,1.0499 0.31198,1.4687 0.22007,0.4189 0.5086,0.7851 0.90474,1.0937 0.41814,0.3087 0.93449,0.6013 1.5287,0.8438 0.61622,0.2205 1.33837,0.4266 2.15267,0.625 0.66023,0.1764 1.23171,0.296 1.71589,0.4062 0.50616,0.1103 0.91779,0.252 1.24792,0.4063 0.33011,0.1543 0.56349,0.3421 0.71755,0.5625 0.17606,0.2204 0.28078,0.5315 0.28079,0.9062 -1e-5,1.2125 -1.01432,1.8126 -2.99502,1.8126 -0.66024,0 -1.2501,-0.046 -1.77828,-0.1563 -0.52819,-0.1323 -0.96739,-0.2924 -1.34152,-0.4687 -0.37413,-0.1764 -0.67547,-0.3641 -0.87354,-0.5626 -0.19807,-0.2204 -0.28079,-0.4173 -0.28079,-0.5937 0,-0.088 0.0459,-0.2759 0.15599,-0.5625 l -0.40557,-0.1562 -1.93428,4.1874 0.40558,0.1563 c 0.26409,-0.3086 0.48828,-0.4687 0.68635,-0.4687 0.15406,0 0.36906,0.077 0.65516,0.1874 0.28611,0.1103 0.65178,0.2207 1.09193,0.375 0.44016,0.1323 0.9565,0.2648 1.52871,0.375 0.5942,0.1103 1.2484,0.1563 1.99667,0.1563 1.93667,0 3.42694,-0.3939 4.46132,-1.1875 1.03436,-0.7936 1.55989,-1.9293 1.5599,-3.4062 -1e-5,-1.94 -1.13379,-3.2542 -3.40059,-3.9376 -0.79229,-0.2424 -1.53282,-0.4302 -2.21506,-0.5624 -0.68224,-0.1544 -1.26292,-0.274 -1.74708,-0.4063 -0.48418,-0.1543 -0.86824,-0.342 -1.15433,-0.5625 -0.2641,-0.2425 -0.40558,-0.5719 -0.40558,-0.9688 0,-0.4629 0.20581,-0.8292 0.62396,-1.0937 0.44015,-0.2645 1.09799,-0.4062 1.93428,-0.4063 1.07838,1e-4 1.90162,0.197 2.49584,0.5938 0.5942,0.3968 0.90474,0.7723 0.90475,1.125 -10e-6,0.1323 -0.0864,0.3292 -0.21839,0.5938 l 0.40558,0.1874 2.40224,-3.875 -0.34317,-0.1562 c -0.28612,0.2425 -0.54151,0.3438 -0.71756,0.3438 -0.13206,0 -0.32868,-0.046 -0.59276,-0.1563 -0.2641,-0.1102 -0.57101,-0.2427 -0.96714,-0.375 -0.37414,-0.1543 -0.84453,-0.2648 -1.37271,-0.375 -0.52819,-0.1102 -1.11806,-0.1875 -1.77829,-0.1875 z m 120.98595,0 c -1.80464,0 -3.22138,0.3847 -4.21173,1.1562 -0.96835,0.7496 -1.43511,1.784 -1.43511,3.0626 0,0.5731 0.0828,1.0499 0.28078,1.4687 0.22008,0.4189 0.5398,0.7851 0.93594,1.0937 0.41815,0.3087 0.9033,0.6013 1.49751,0.8438 0.61621,0.2205 1.33837,0.4266 2.15266,0.625 0.66023,0.1764 1.23172,0.296 1.71589,0.4062 0.50617,0.1103 0.91779,0.252 1.24792,0.4063 0.33011,0.1543 0.59469,0.3421 0.74876,0.5625 0.17605,0.2204 0.24957,0.5315 0.24958,0.9062 -1e-5,1.2125 -0.98312,1.8126 -2.96381,1.8126 -0.66024,0 -1.25011,-0.046 -1.77829,-0.1563 -0.52819,-0.1323 -0.99859,-0.2924 -1.37271,-0.4687 -0.37414,-0.1764 -0.64428,-0.3641 -0.84235,-0.5626 -0.19807,-0.2204 -0.31198,-0.4173 -0.31198,-0.5937 0,-0.088 0.0772,-0.2759 0.18719,-0.5625 l -0.40558,-0.1562 -1.93427,4.1874 0.37437,0.1563 c 0.26409,-0.3086 0.48829,-0.4687 0.68636,-0.4687 0.15405,0 0.40025,0.077 0.68636,0.1874 0.2861,0.1103 0.65177,0.2207 1.09193,0.375 0.44015,0.1323 0.9253,0.2648 1.4975,0.375 0.5942,0.1103 1.2796,0.1563 2.02787,0.1563 1.93668,0 3.42695,-0.3939 4.46132,-1.1875 1.03436,-0.7936 1.5287,-1.9293 1.52871,-3.4062 -10e-6,-1.94 -1.13379,-3.2542 -3.40059,-3.9376 -0.79229,-0.2424 -1.53283,-0.4302 -2.21506,-0.5624 -0.68224,-0.1544 -1.26292,-0.274 -1.74709,-0.4063 -0.48417,-0.1543 -0.86823,-0.342 -1.15433,-0.5625 -0.2641,-0.2425 -0.37437,-0.5719 -0.37437,-0.9688 0,-0.4629 0.20581,-0.8292 0.62396,-1.0937 0.44015,-0.2645 1.06678,-0.4062 1.90308,-0.4063 1.07837,1e-4 1.93282,0.197 2.52704,0.5938 0.5942,0.3968 0.87353,0.7723 0.87354,1.125 -10e-6,0.1323 -0.0551,0.3292 -0.18718,0.5938 l 0.37437,0.1874 2.43345,-3.875 -0.37438,-0.1562 c -0.28611,0.2425 -0.51031,0.3438 -0.68635,0.3438 -0.13206,0 -0.32869,-0.046 -0.59277,-0.1563 -0.2641,-0.1102 -0.6022,-0.2427 -0.99833,-0.375 -0.37414,-0.1543 -0.81334,-0.2648 -1.34152,-0.375 -0.52819,-0.1102 -1.11806,-0.1875 -1.77829,-0.1875 z m 60.92975,0 c -0.99036,0 -1.90914,0.1878 -2.74542,0.5625 -0.8143,0.3527 -1.49606,0.8699 -2.09027,1.5313 -0.59421,0.6613 -1.08299,1.4399 -1.43511,2.3437 -0.33012,0.9038 -0.49917,1.8886 -0.49917,2.9687 0,1.0802 0.16905,2.1054 0.49917,3.0313 0.35212,0.9038 0.8409,1.6824 1.43511,2.3437 0.61621,0.6614 1.31636,1.1565 2.15266,1.5313 0.83629,0.3748 1.75507,0.5625 2.74543,0.5625 0.79227,0 1.48686,-0.083 2.05907,-0.2812 0.57219,-0.1764 1.03896,-0.3734 1.43511,-0.5938 0.41813,-0.2425 0.75624,-0.4486 0.99833,-0.625 0.26408,-0.1984 0.4699,-0.3125 0.62396,-0.3125 0.13204,0 0.38743,0.1233 0.71756,0.3437 l 0.28078,-0.3124 -2.99501,-3.6563 -0.34318,0.25 c 0.13204,0.3307 0.21838,0.6141 0.21839,0.8125 -1e-5,0.485 -0.28297,0.9065 -0.81115,1.2812 -0.50619,0.3528 -1.16039,0.5313 -1.99667,0.5313 -1.27646,0 -2.29077,-0.4215 -2.99501,-1.2813 -0.70426,-0.8597 -1.06074,-2.0818 -1.06074,-3.625 0,-1.521 0.35648,-2.7119 1.06074,-3.5937 0.72625,-0.9038 1.6634,-1.3437 2.80782,-1.3437 0.48416,0 0.93618,0.055 1.31032,0.1874 0.37412,0.1103 0.66264,0.2612 0.90474,0.4376 0.26408,0.1763 0.4607,0.3733 0.59276,0.5937 0.13204,0.1984 0.21838,0.3862 0.21839,0.5625 -10e-6,0.088 -0.0772,0.2667 -0.18719,0.5312 l 0.37438,0.1563 2.21506,-3.7187 -0.34318,-0.1876 c -0.13206,0.088 -0.22396,0.1435 -0.31198,0.1876 -0.0881,0.044 -0.20196,0.094 -0.31198,0.094 -0.13206,0 -0.31031,-0.086 -0.53037,-0.2187 -0.22009,-0.1323 -0.49023,-0.2832 -0.84235,-0.4376 -0.35213,-0.1763 -0.81333,-0.3052 -1.34151,-0.4374 -0.50619,-0.1323 -1.10525,-0.2188 -1.80949,-0.2188 z m -256.07342,0.062 c -1.10039,0 -2.10188,0.1878 -3.0262,0.5625 -0.90233,0.3748 -1.71082,0.9012 -2.37105,1.5625 -0.66024,0.6613 -1.15458,1.4399 -1.52871,2.3437 -0.37413,0.8818 -0.56156,1.839 -0.56156,2.875 0,1.1023 0.16905,2.1367 0.49917,3.0626 0.35212,0.9038 0.82808,1.6824 1.4663,2.3437 0.66023,0.6613 1.43753,1.1565 2.33986,1.5313 0.92432,0.3527 1.97539,0.5312 3.1198,0.5312 1.29845,0 2.42304,-0.197 3.36939,-0.5938 0.96832,-0.4188 1.81915,-1.0649 2.58943,-1.9687 l -0.34318,-0.4063 0,-3.25 c -10e-6,-0.3306 0.0551,-0.5644 0.18719,-0.7187 0.13203,-0.1763 0.36541,-0.2776 0.71756,-0.3437 l 0,-0.4688 -5.89643,0 c -0.33013,0 -0.56351,-0.037 -0.71756,-0.125 -0.15406,-0.1102 -0.26797,-0.3476 -0.31198,-0.6562 l -0.40557,0 0,3.9687 0.40557,0 c 0.044,-0.3527 0.13954,-0.5681 0.24959,-0.6563 0.13204,-0.1102 0.36542,-0.1562 0.71755,-0.1562 l 2.15267,0 0,2.0938 c -0.41817,0.3086 -0.85179,0.5239 -1.24792,0.6562 -0.37415,0.1323 -0.78577,0.1875 -1.24793,0.1875 -1.3865,0 -2.52028,-0.4307 -3.40058,-1.3125 -0.85831,-0.9038 -1.27912,-2.1536 -1.27912,-3.7188 0,-1.521 0.39325,-2.7119 1.18553,-3.5937 0.81428,-0.9038 1.89292,-1.3437 3.21339,-1.3437 1.10038,0 1.91444,0.1969 2.46465,0.5937 0.57218,0.3968 0.87353,0.7907 0.87354,1.1875 -10e-6,0.1102 -0.0772,0.298 -0.18719,0.5625 l 0.40558,0.1563 2.46464,-3.5626 -0.31198,-0.2187 c -0.13206,0.088 -0.25516,0.1839 -0.34318,0.25 -0.088,0.044 -0.17075,0.062 -0.28078,0.062 -0.13206,0 -0.32868,-0.055 -0.59276,-0.1875 -0.26411,-0.1543 -0.60221,-0.3236 -0.99834,-0.5 -0.39615,-0.1984 -0.89412,-0.3677 -1.46631,-0.5 -0.5502,-0.1543 -1.17682,-0.25 -1.90308,-0.25 z m -63.33199,0.25 0,0.4687 c 0.35212,0.088 0.57632,0.1803 0.68635,0.3126 0.11004,0.1322 0.15599,0.3476 0.15599,0.6562 l 0,11.375 c 0,0.3086 -0.0459,0.524 -0.15599,0.6562 -0.11003,0.1103 -0.33423,0.2244 -0.68635,0.3126 l 0,0.4687 4.58611,0 0,-0.4687 c -0.35214,-0.088 -0.57632,-0.2023 -0.68636,-0.3126 -0.088,-0.1322 -0.1248,-0.3476 -0.12479,-0.6562 l 0,-5.0625 5.92762,0 0,5.0625 c -10e-6,0.3086 -0.0459,0.524 -0.15599,0.6562 -0.0881,0.1103 -0.30304,0.2244 -0.65515,0.3126 l 0,0.4687 4.58611,0 0,-0.4687 c -0.35215,-0.088 -0.60753,-0.2023 -0.71756,-0.3126 -0.11006,-0.1322 -0.156,-0.3476 -0.15599,-0.6562 l 0,-11.375 c -1e-5,-0.3086 0.0459,-0.524 0.15599,-0.6562 0.11003,-0.1323 0.36541,-0.2244 0.71756,-0.3126 l 0,-0.4687 -4.58611,0 0,0.4687 c 0.35211,0.088 0.56711,0.1803 0.65515,0.3126 0.11003,0.1322 0.15598,0.3476 0.15599,0.6562 l 0,3.9688 -5.92762,0 0,-3.9688 c -1e-5,-0.3086 0.0367,-0.524 0.12479,-0.6562 0.11004,-0.1323 0.33422,-0.2244 0.68636,-0.3126 l 0,-0.4687 z m 17.3149,0 0,0.4687 c 0.35213,0.088 0.56713,0.1803 0.65516,0.3126 0.11004,0.1322 0.15599,0.3476 0.15599,0.6562 l 0,11.375 c 0,0.3086 -0.0459,0.524 -0.15599,0.6562 -0.088,0.1103 -0.30303,0.2244 -0.65516,0.3126 l 0,0.4687 4.58611,0 0,-0.4687 c -0.35213,-0.088 -0.60751,-0.2023 -0.71755,-0.3126 -0.11005,-0.1322 -0.156,-0.3476 -0.15599,-0.6562 l 0,-11.375 c -1e-5,-0.3086 0.0459,-0.524 0.15599,-0.6562 0.11004,-0.1323 0.36542,-0.2244 0.71755,-0.3126 l 0,-0.4687 z m 26.9239,0 0,0.4687 c 0.44015,0.066 0.65516,0.1951 0.65516,0.4376 0,0.1984 -0.0276,0.3769 -0.0935,0.5312 l -4.18054,11.375 c -0.11004,0.2425 -0.19275,0.4394 -0.28078,0.5938 -0.066,0.1543 -0.32142,0.2868 -0.71756,0.375 l 0,0.4687 4.30533,0 0,-0.4687 c -0.52819,-0.066 -0.77995,-0.2815 -0.77995,-0.6563 0,-0.1323 0.009,-0.2464 0.0312,-0.3125 l 0.71755,-2.0312 5.24127,0 0.68636,2.0312 c 0.066,0.1984 0.12478,0.3493 0.12479,0.4375 -1e-5,0.1543 -0.0864,0.2776 -0.21839,0.3437 -0.11004,0.066 -0.28829,0.1214 -0.53036,0.1876 l 0,0.4687 4.52371,0 0,-0.4687 c -0.30812,-0.1103 -0.51393,-0.2428 -0.62396,-0.375 -0.11006,-0.1544 -0.19277,-0.3513 -0.28078,-0.5938 l -3.93095,-11.375 c -0.044,-0.1543 -0.0716,-0.2556 -0.0935,-0.3438 -0.022,-0.1102 -0.0624,-0.2058 -0.0624,-0.25 -1e-5,-0.1542 0.25538,-0.2647 0.71755,-0.375 l 0,-0.4687 z m 119.02048,0 0,0.4687 c 0.44015,0.066 0.65516,0.1951 0.65516,0.4376 0,0.1984 -0.0276,0.3769 -0.0935,0.5312 l -4.14933,11.375 c -0.11004,0.2425 -0.22395,0.4394 -0.31198,0.5938 -0.066,0.1543 -0.29022,0.2868 -0.68636,0.375 l 0,0.4687 4.30533,0 0,-0.4687 c -0.52819,-0.066 -0.81115,-0.2815 -0.81115,-0.6563 0,-0.1323 0.009,-0.2464 0.0311,-0.3125 l 0.71755,-2.0312 5.27247,0 0.68636,2.0312 c 0.066,0.1984 0.0935,0.3493 0.0935,0.4375 -10e-6,0.1543 -0.0551,0.2776 -0.18719,0.3437 -0.11005,0.066 -0.28829,0.1214 -0.53037,0.1876 l 0,0.4687 4.52372,0 0,-0.4687 c -0.30813,-0.1103 -0.51394,-0.2428 -0.62396,-0.375 -0.11006,-0.1544 -0.22397,-0.3513 -0.31198,-0.5938 l -3.9309,-11.3741 c -0.044,-0.1543 -0.0716,-0.2556 -0.0935,-0.3438 -0.022,-0.1102 -0.0312,-0.2058 -0.0312,-0.25 -10e-6,-0.1542 0.22419,-0.2647 0.68636,-0.375 l 0,-0.4687 z m 11.85525,0 0,0.4687 c 0.35212,0.088 0.56713,0.1803 0.65516,0.3126 0.11004,0.1322 0.15599,0.3476 0.15599,0.6562 l 0,8.2812 c 0,3.2185 2.0158,4.8125 6.02122,4.8126 3.87336,-1e-4 5.80282,-1.5941 5.80283,-4.8126 l 0,-8.2812 c -10e-6,-0.3086 0.0459,-0.524 0.15599,-0.6562 0.11003,-0.1323 0.33422,-0.2244 0.68636,-0.3126 l 0,-0.4687 -4.39892,0 0,0.4687 c 0.35211,0.088 0.57631,0.1803 0.68635,0.3126 0.11003,0.1322 0.15598,0.3476 0.15599,0.6562 l 0,8.1562 c -10e-6,1.6975 -1.01988,2.5313 -3.0886,2.5313 -2.06873,0 -3.1198,-0.8338 -3.1198,-2.5313 l 0,-8.1562 c 0,-0.3086 0.0772,-0.524 0.18718,-0.6562 0.11004,-0.1323 0.33423,-0.2244 0.68636,-0.3126 l 0,-0.4687 z m 17.12772,0 0,0.4687 c 0.35212,0.088 0.57632,0.1803 0.68635,0.3126 0.11004,0.1322 0.156,0.3476 0.156,0.6562 l 0,11.375 c 0,0.3086 -0.0459,0.524 -0.156,0.6562 -0.11003,0.1103 -0.33423,0.2244 -0.68635,0.3126 l 0,0.4687 4.58611,0 0,-0.4687 c -0.35213,-0.088 -0.57632,-0.2023 -0.68636,-0.3126 -0.088,-0.1322 -0.1248,-0.3476 -0.12479,-0.6562 l 0,-4.5938 2.40225,0 2.37105,4.5938 c 0.13204,0.2645 0.18718,0.4523 0.18719,0.5625 -10e-6,0.1764 -0.23339,0.3181 -0.71756,0.4063 l 0,0.4687 4.89809,0 0,-0.4687 c -0.50619,-0.1764 -0.89024,-0.5151 -1.15432,-1 l -2.62064,-4.875 c 1.01234,-0.2646 1.78045,-0.7542 2.30865,-1.4376 0.55019,-0.7054 0.84234,-1.5392 0.84235,-2.5312 -1e-5,-1.1683 -0.45203,-2.1163 -1.31032,-2.8438 -0.85831,-0.7274 -2.11157,-1.0937 -3.80616,-1.0937 z m 18.87481,0 0,0.4687 c 0.44014,0.066 0.65515,0.1951 0.65515,0.4376 0,0.1984 -0.0276,0.3769 -0.0935,0.5312 l -4.14934,11.375 c -0.11003,0.2425 -0.22394,0.4394 -0.31198,0.5938 -0.066,0.1543 -0.29021,0.2868 -0.68635,0.375 l 0,0.4687 4.30532,0 0,-0.4687 c -0.52819,-0.066 -0.81115,-0.2815 -0.81115,-0.6563 0,-0.1323 0.009,-0.2464 0.0312,-0.3125 l 0.74876,-2.0312 5.24126,0 0.68636,2.0312 c 0.066,0.1984 0.0935,0.3493 0.0935,0.4375 -1e-5,0.1543 -0.0551,0.2776 -0.18718,0.3437 -0.11005,0.066 -0.28829,0.1214 -0.53037,0.1876 l 0,0.4687 4.52371,0 0,-0.4687 c -0.30812,-0.1103 -0.51393,-0.2428 -0.62396,-0.375 -0.11005,-0.1544 -0.22396,-0.3513 -0.31198,-0.5938 l -3.93095,-11.375 c -0.044,-0.1543 -0.0716,-0.2556 -0.0935,-0.3438 -0.022,-0.1102 -0.0312,-0.2058 -0.0312,-0.25 -1e-5,-0.1542 0.22419,-0.2647 0.68636,-0.375 l 0,-0.4687 z m 11.91764,0 0,0.4687 c 0.35213,0.088 0.57632,0.1803 0.68636,0.3126 0.11004,0.1322 0.15599,0.3476 0.15599,0.6562 l 0,11.375 c 0,0.3086 -0.0459,0.524 -0.15599,0.6562 -0.11004,0.1103 -0.33423,0.2244 -0.68636,0.3126 l 0,0.4687 4.46132,0 0,-0.4687 c -0.35213,-0.088 -0.57632,-0.2023 -0.68636,-0.3126 -0.11004,-0.1322 -0.18718,-0.3476 -0.18718,-0.6562 l 0,-8.5 5.45965,8.7188 c 0.022,0.066 0.0312,0.1397 0.0312,0.25 -10e-6,0.2645 -0.18744,0.443 -0.56157,0.5312 l 0,0.4375 4.71091,0 0,-0.4687 c -0.35215,-0.088 -0.57633,-0.2023 -0.68636,-0.3126 -0.11006,-0.1322 -0.156,-0.3476 -0.15599,-0.6562 l 0,-11.375 c -10e-6,-0.3086 0.0459,-0.5148 0.15599,-0.625 0.11003,-0.1323 0.33421,-0.2243 0.68636,-0.3125 l 0,-0.5 -4.43012,0 0,0.5 c 0.35211,0.088 0.59831,0.1802 0.68635,0.3125 0.11003,0.1102 0.15598,0.3164 0.15599,0.625 l 0,7.5312 -4.80449,-7.6874 c -0.11005,-0.2205 -0.156,-0.3622 -0.15599,-0.4063 -1e-5,-0.2866 0.19661,-0.4062 0.59276,-0.4063 l 0.0935,0 0,-0.4687 z m 73.03459,0 0,0.4687 c 0.35212,0.088 0.57632,0.1803 0.68635,0.3126 0.11004,0.1322 0.15599,0.3476 0.15599,0.6562 l 0,11.375 c 0,0.3086 -0.0459,0.524 -0.15599,0.6562 -0.11003,0.1103 -0.33423,0.2244 -0.68635,0.3126 l 0,0.4687 4.46132,0 0,-0.4687 c -0.35214,-0.088 -0.60752,-0.2023 -0.71756,-0.3126 -0.11005,-0.1322 -0.15599,-0.3476 -0.15599,-0.6562 l 0,-8.5 5.45966,8.7188 c 0.022,0.066 0.0311,0.1397 0.0311,0.25 -10e-6,0.2645 -0.18743,0.443 -0.56156,0.5312 l 0,0.4375 4.7109,0 0,-0.4687 c -0.35214,-0.088 -0.57633,-0.2023 -0.68636,-0.3126 -0.11005,-0.1322 -0.156,-0.3476 -0.15599,-0.6562 l 0,-11.375 c -1e-5,-0.3086 0.0459,-0.5148 0.15599,-0.625 0.11003,-0.1323 0.33422,-0.2243 0.68636,-0.3125 l 0,-0.5 -4.43012,0 0,0.5 c 0.35211,0.088 0.56712,0.1802 0.65516,0.3125 0.11003,0.1102 0.18718,0.3164 0.18719,0.625 l 0,7.5312 -4.8045,-7.6874 c -0.11005,-0.2205 -0.156,-0.3622 -0.15599,-0.4063 -10e-6,-0.2866 0.19661,-0.4062 0.59276,-0.4063 l 0.0935,0 0,-0.4687 z m -347.14047,2.2187 c 1.1444,1e-4 2.07237,0.44 2.77663,1.3438 0.72625,0.8818 1.06072,2.0543 1.06073,3.5312 -1e-5,1.455 -0.3253,2.6275 -1.02953,3.5313 -0.70426,0.8818 -1.64142,1.3438 -2.80783,1.3437 -1.18843,1e-4 -2.13477,-0.4215 -2.83902,-1.2812 -0.68224,-0.8597 -1.02953,-2.0727 -1.02953,-3.5938 0,-1.521 0.35648,-2.7027 1.06073,-3.5624 0.70425,-0.8818 1.64141,-1.3125 2.80782,-1.3126 z m 130.68855,0 c 1.14439,1e-4 2.07236,0.44 2.77662,1.3438 0.72625,0.8818 1.09192,2.0543 1.09193,3.5312 -10e-6,1.455 -0.35649,2.6275 -1.06073,3.5313 -0.70426,0.8818 -1.64142,1.3438 -2.80782,1.3437 -1.18843,1e-4 -2.13478,-0.4215 -2.83902,-1.2812 -0.68225,-0.8597 -1.02954,-2.0727 -1.02954,-3.5938 0,-1.521 0.35648,-2.7027 1.06073,-3.5624 0.70425,-0.8818 1.64141,-1.3125 2.80783,-1.3126 z m 116.39984,0.125 2.80782,0 c 0.92432,1e-4 1.58771,0.1418 2.02787,0.4063 0.44015,0.2425 0.65515,0.6732 0.65516,1.3125 -10e-6,0.6834 -0.21501,1.1509 -0.65516,1.4375 -0.41815,0.2866 -1.05397,0.4375 -1.93427,0.4375 l -2.90142,0 z m -149.40736,0.9376 1.80949,5.2812 -3.71257,0 z m 119.02048,0 1.80949,5.2812 -3.68137,0 z m 47.85778,0 1.84068,5.2812 -3.71257,0 z m 57.21718,6.9374 c -0.57221,1e-4 -1.07017,0.197 -1.46631,0.5938 -0.37413,0.3968 -0.56156,0.8643 -0.56156,1.4375 0,1.1463 0.60824,1.8052 1.84068,1.9375 0.30811,0.044 0.54511,0.081 0.65516,0.125 0.13204,0.066 0.18719,0.1986 0.18719,0.375 0,0.485 -0.24258,0.9709 -0.74875,1.5 -0.50619,0.5291 -1.26511,1.0279 -2.27746,1.4688 l 0,1 c 1.58456,-0.5512 2.77348,-1.3021 3.58777,-2.25 0.83629,-0.948 1.24791,-2.056 1.24792,-3.3126 -10e-6,-0.8817 -0.21501,-1.5867 -0.65515,-2.0937 -0.44016,-0.5291 -1.03922,-0.7812 -1.80949,-0.7813 z m 60.61777,0.094 c -0.57221,0 -1.04816,0.197 -1.46631,0.5938 -0.39614,0.3968 -0.59276,0.8955 -0.59276,1.4687 0,0.5952 0.19662,1.072 0.59276,1.4687 0.39614,0.3968 0.8721,0.5938 1.46631,0.5938 0.5722,0 1.07016,-0.197 1.46631,-0.5938 0.41814,-0.4188 0.62395,-0.8955 0.62396,-1.4687 -10e-6,-0.5732 -0.20582,-1.0719 -0.62396,-1.4687 -0.39615,-0.3968 -0.89411,-0.5938 -1.46631,-0.5938 z"
       id="text3022"
       inkscape:connector-curvature="0"
       sodipodi:nodetypes="ccccsccsccccsccccccccscccscccsccccccccccccccccccccccccccccccccccccccccccccccccccccccccccccccsscccccccccccccccccccccsccccssccccccccccccccscccsscccsccccccscccccccccsccscccccccscccsscccccccccccccccsccscccccccscccsscccsccccccscccccccccsccscccccccccscsccccccccsccccccsssccccccscsccccccccsccccccsssccccccscsccccccccsccccccssscccsccsccscsccccccccscccsccccscccsscccccsccccccccsccsssccsscccccccccccsscccsccsscccsccccccscscscccccccccscccssccsscccccccccccsscsccccccccscccsccccscccsscccccsccccccccsccssscsccccccccscccsccccscccsscccccsccccccccsccssscccsccsscccsccccccscscscccccccccscccsscscscccscccccccsccccccscccscscscccccccscccscccsscccccccccccccccccccccccccccccccccccssccccccccccccccscccccccsccccccccccccccccccccscccccccscccccccccccccccccccccsscsccccccccsssscccccccssccccccccccccccccccccscccscccccccscccccccccccccccccccccssccccccscccccccccccccccccccccccccccssccccccsccccccccccccccccccccccccccccccsccccccccscccccccsccccccccccccccccsccssccccccscscscccs" />
    <path
       inkscape:connector-curvature="0"
       d="m 98.817647,2302.692 457.333593,0"
       id="path3012"
       style="fill:none;stroke:#ffa82f;stroke-width:0.98996234px;stroke-linecap:round;stroke-linejoin:miter;stroke-opacity:1" />
    <path
       inkscape:connector-curvature="0"
       d="m 108.98062,2306.3661 437.00765,0"
       id="path3012-2"
       style="fill:none;stroke:#ffa82f;stroke-width:0.98996234px;stroke-linecap:round;stroke-linejoin:miter;stroke-opacity:1" />
    <path
       inkscape:connector-curvature="0"
       d="m 98.817647,2265.492 457.333593,0"
       id="path3012-1"
       style="fill:none;stroke:#ffa82f;stroke-width:0.98996234px;stroke-linecap:round;stroke-linejoin:miter;stroke-opacity:1" />
    <path
       inkscape:connector-curvature="0"
       d="m 108.98062,2261.818 437.00765,0"
       id="path3012-2-2"
       style="fill:none;stroke:#ffa82f;stroke-width:0.98996234px;stroke-linecap:round;stroke-linejoin:miter;stroke-opacity:1" />
  </g>
</svg>
