<?xml version="1.0" encoding="UTF-8" standalone="no"?>
<!-- Created with Inkscape (http://www.inkscape.org/) -->

<svg
   xmlns:dc="http://purl.org/dc/elements/1.1/"
   xmlns:cc="http://creativecommons.org/ns#"
   xmlns:rdf="http://www.w3.org/1999/02/22-rdf-syntax-ns#"
   xmlns:svg="http://www.w3.org/2000/svg"
   xmlns="http://www.w3.org/2000/svg"
   version="1.1"
   width="148.97769"
   height="19.999996"
   id="svg2">
  <defs
     id="defs4" />
  <metadata
     id="metadata7">
    <rdf:RDF>
      <cc:Work
         rdf:about="">
        <dc:format>image/svg+xml</dc:format>
        <dc:type
           rdf:resource="http://purl.org/dc/dcmitype/StillImage" />
        <dc:title></dc:title>
      </cc:Work>
    </rdf:RDF>
  </metadata>
  <path
     d="m 114.71434,0 c -0.0338,0.39197096 -0.0732,0.6509474 -0.13849,0.7779083 -0.0653,0.1269929 -0.17339,0.1882227 -0.3047,0.1882227 l -12.46441,0 0,0.4265977 c 0.31022,0.046289 0.49468,0.1209591 0.56781,0.2258394 0.0732,0.1049229 0.11064,0.2394072 0.11064,0.4015163 l 0,16.2861246 c 0,0.163652 -0.0379,0.296646 -0.11064,0.401495 -0.0732,0.104284 -0.25759,0.192308 -0.56781,0.238385 l 0,0.414052 5.06885,0 0,-0.426598 c -0.31189,-0.04693 -0.49469,-0.121001 -0.56781,-0.225839 -0.0737,-0.104923 -0.11065,-0.238396 -0.11065,-0.401495 l 0,-5.846959 5.42897,0 c 0.13017,0 0.23928,0.06012 0.30467,0.175665 0.0647,0.117384 0.10477,0.369731 0.13848,0.765362 l 0.29084,0 0,-5.8720191 -0.29084,0 c -0.0337,0.3267187 -0.0736,0.5350001 -0.13848,0.6398911 -0.0653,0.1049229 -0.1745,0.1631093 -0.30467,0.1631093 l -5.42897,0 0,-3.0991191 8.07417,0 c 0.1313,0 0.23932,0.059165 0.30469,0.1756553 0.0653,0.1169475 0.10477,0.3272295 0.1385,0.6524478 l 0.30469,0 0,-6.0602423 z M 8.115709,0.7779083 c -0.980303,0 -1.958352,0.1937349 -2.922208,0.5897282 C 4.229924,1.7651197 3.362119,2.3568378 2.589828,3.1367785 1.81724,3.9187092 1.196619,4.8948643 0.720158,6.0727884 0.243837,7.2502123 0,8.626862 0,10.188234 c 0,1.562307 0.243837,2.925624 0.720158,4.102887 0.476461,1.17802 1.097082,2.15458 1.86967,2.936032 0.772291,0.781814 1.640096,1.357985 2.603673,1.718936 0.963856,0.36092 1.941905,0.539534 2.922208,0.539534 0.914892,0 1.743526,-0.08939 2.479038,-0.263489 0.734689,-0.175655 1.363722,-0.367985 1.911215,-0.589717 0.547503,-0.221328 1.000823,-0.42796 1.343392,-0.627356 0.342748,-0.196651 0.56389,-0.301126 0.678623,-0.301126 0.08114,0 0.149951,0.01607 0.207734,0.05034 0.0581,0.03564 0.105139,0.108807 0.1385,0.22585 l 0.290844,-0.238396 -2.520593,-5.495618 -0.263134,0.250943 c 0.03208,0.09397 0.06356,0.168579 0.09683,0.238396 0.03228,0.06981 0.04161,0.160204 0.04161,0.276034 0,0.256051 -0.174681,0.507004 -0.526298,0.740281 -0.351657,0.232927 -0.748742,0.441315 -1.204892,0.627356 -0.457262,0.186243 -0.914048,0.334253 -1.371081,0.439144 -0.457481,0.104923 -0.798501,0.150563 -1.011013,0.150563 -0.48965,0 -0.998657,-0.07523 -1.537281,-0.238396 C 6.330648,14.567318 5.837055,14.289315 5.387331,13.914859 4.937895,13.54001 4.565233,13.054194 4.279374,12.434308 3.993099,11.815572 3.85006,11.053126 3.85006,10.163282 3.85006,9.2744593 3.993099,8.5256443 4.279374,7.9048116 4.565233,7.2865009 4.937895,6.7866063 5.387331,6.4117039 5.837055,6.0373124 6.330648,5.7723024 6.869212,5.6086823 7.407856,5.4455836 7.916843,5.3577612 8.406493,5.3577612 c 0.523061,0 1.02158,0.05874 1.495736,0.1630987 0.473928,0.1049229 0.893291,0.22485 1.260292,0.3764241 0.367449,0.1515529 0.665821,0.3161839 0.886368,0.5018739 0.220238,0.1862009 0.332389,0.3784352 0.332389,0.5646255 0,0.1169368 -0.006,0.2198166 -0.0138,0.3011371 -0.0099,0.081299 -0.02592,0.1570757 -0.04171,0.2258289 l 0.249299,0.2384069 2.202049,-5.7340237 -0.263134,-0.1129145 c -0.09805,0.1851879 -0.227002,0.2885784 -0.373974,0.2885784 -0.131567,0 -0.321583,-0.073318 -0.581668,-0.200758 C 13.296666,1.843567 12.924679,1.6909926 12.450374,1.5058027 11.960873,1.3216024 11.360145,1.1549815 10.649949,1.0039181 9.938878,0.853855 9.09489,0.7780679 8.11552,0.7780679 z M 148.68685,3.2246009 c 0,0.3282298 -0.0549,0.5455457 -0.15235,0.6399124 -0.0979,0.093324 -0.19278,0.1379959 -0.29085,0.1379959 l -11.10717,0 0,0.4140516 c 0.17892,0.023518 0.33181,0.068742 0.47088,0.1380384 0.13793,0.070871 0.20773,0.2328734 0.20773,0.4893279 l 0,13.2622819 c 0,0.255432 -0.0697,0.419553 -0.20773,0.489327 -0.13907,0.07087 -0.29196,0.127621 -0.47088,0.150553 l 0,0.414052 10.91331,0 c 0.19556,0 0.33957,0.02607 0.42933,0.07523 0.0898,0.04725 0.18114,0.229958 0.26314,0.564625 l 0.23543,0 0,-4.617329 -0.29084,0 c -0.0985,0.583034 -0.31078,0.878287 -0.63706,0.878287 l -6.95238,0 0,-3.412802 4.59798,0 c 0.0985,0 0.19278,0.04639 0.29084,0.150574 0.0979,0.104815 0.15235,0.326825 0.15235,0.652448 l 0.29082,0 0,-4.5169618 -0.29082,0 c 0,0.3262288 -0.0543,0.5470468 -0.15235,0.6524478 -0.098,0.104391 -0.19222,0.150574 -0.29084,0.150574 l -4.59798,0 0,-2.8356416 7.14624,0 c 0.0979,0 0.19282,0.045757 0.29085,0.1505632 0.0974,0.1049229 0.15235,0.3407759 0.15235,0.690086 l 0.29084,0 0,-4.7176979 z M 45.232041,3.8143078 c -0.899656,0 -1.77494,0.1360273 -2.631393,0.4266083 -0.856989,0.2911024 -1.625356,0.7518159 -2.298994,1.3801719 -0.674183,0.6288668 -1.223186,1.4454241 -1.634235,2.446682 -0.411586,1.000747 -0.609379,2.219427 -0.609379,3.638663 0,1.443902 0.197793,2.661933 0.609379,3.663745 0.411049,1.000597 0.960052,1.804822 1.634235,2.421579 0.673638,0.617331 1.442005,1.06104 2.298994,1.317452 0.856453,0.255859 1.731737,0.376414 2.631393,0.376414 0.783305,0 1.487403,-0.0929 2.132815,-0.276045 0.645381,-0.18369 1.215409,-0.400953 1.689615,-0.664995 0.474206,-0.264488 0.849233,-0.508343 1.135637,-0.715177 0.285849,-0.206228 0.460351,-0.301138 0.526279,-0.301138 0.112995,0 0.240976,0.123929 0.387779,0.376424 l 0.304699,-0.238407 -2.340549,-4.767882 -0.263134,0.250943 c 0.01539,0.07023 0.02771,0.174101 0.02771,0.313662 l 0,0.313683 c 0,0.117032 -0.102477,0.295263 -0.290844,0.539523 -0.187782,0.244068 -0.441521,0.483273 -0.775568,0.727745 -0.335131,0.243301 -0.716831,0.465183 -1.149502,0.639902 -0.433188,0.17525 -0.895217,0.250921 -1.384917,0.250921 -0.45758,0 -0.924595,-0.07438 -1.398791,-0.238386 -0.47365,-0.164663 -0.898008,-0.424639 -1.274147,-0.765373 -0.375602,-0.340722 -0.683043,-0.777312 -0.927902,-1.317431 -0.24485,-0.539937 -0.373944,-1.166282 -0.373944,-1.894612 0,-0.750784 0.129094,-1.391229 0.373944,-1.919717 0.244859,-0.5284769 0.5523,-0.9641196 0.927902,-1.3048954 0.376139,-0.341276 0.800497,-0.6007526 1.274147,-0.7653623 0.474196,-0.1641202 0.941211,-0.2383962 1.398791,-0.2383962 0.408278,0 0.80437,0.059165 1.204892,0.1756554 0.399975,0.1169474 0.762259,0.2499419 1.080247,0.4015055 0.317988,0.1505738 0.585006,0.3166946 0.789413,0.5018952 0.203871,0.1866903 0.304689,0.3502997 0.304689,0.4893279 0,0.1169368 -0.01718,0.2203273 -0.04161,0.3136725 -0.02483,0.092792 -0.03993,0.1826894 -0.05562,0.2760454 l 0.346234,0.250931 1.75885,-5.0815544 -0.290814,-0.1380279 c -0.03387,0.070339 -0.08651,0.1319943 -0.152345,0.2007582 -0.06525,0.069275 -0.140704,0.1129144 -0.221579,0.1129144 -0.131865,0 -0.355114,-0.073318 -0.664788,-0.2007581 C 48.979406,4.6665135 48.62043,4.5430429 48.195535,4.4040148 47.770075,4.2644972 47.30307,4.1289912 46.796744,4.0025092 46.290409,3.8750481 45.770238,3.8143078 45.231783,3.8143078 z m 28.22501,0 c -0.833736,0 -1.646409,0.1495524 -2.423649,0.4642464 -0.776654,0.3141727 -1.465238,0.790465 -2.077392,1.4303668 -0.612141,0.6399017 -1.104079,1.4574701 -1.468041,2.4466819 -0.36394,0.9902229 -0.540124,2.1772551 -0.540124,3.5508301 0,1.374298 0.14792,2.549008 0.470887,3.538263 0.322415,0.990223 0.772793,1.806386 1.343399,2.446682 0.571135,0.640508 1.25972,1.101594 2.063547,1.380182 0.80215,0.279557 1.682957,0.414063 2.631373,0.414063 0.619897,0 1.234289,-0.06119 1.855809,-0.188213 0.62101,-0.126875 1.22707,-0.308203 1.81429,-0.539522 0.58776,-0.231363 1.12788,-0.488178 1.63422,-0.777908 0.50688,-0.288602 0.96559,-0.574618 1.35724,-0.853207 l 0,-0.414072 -0.22159,0 c -0.14737,0 -0.26481,-0.08885 -0.34624,-0.276013 -0.082,-0.187617 -0.12463,-0.40407 -0.12463,-0.639913 l 0,-4.830622 -5.09657,0 c -0.196114,0 -0.311344,-0.10386 -0.360084,-0.313684 -0.04881,-0.209792 -0.08295,-0.374891 -0.08295,-0.514431 l -0.29083,0 0,4.316193 0.29083,0 c 0,-0.139017 0.03415,-0.317185 0.08295,-0.526977 0.0487,-0.209792 0.16397,-0.313662 0.360084,-0.313662 l 2.06354,0 0,2.308644 c -0.39276,0.189616 -0.78552,0.331752 -1.1772,0.414062 -0.39165,0.08247 -0.79606,0.125471 -1.204876,0.125471 -0.538459,0 -1.03815,-0.101944 -1.495744,-0.28857 -0.45703,-0.185647 -0.848695,-0.468172 -1.191056,-0.853205 -0.342902,-0.383895 -0.620991,-0.874797 -0.817098,-1.468005 -0.195557,-0.594241 -0.290842,-1.306514 -0.290842,-2.145556 0,-0.814514 0.09527,-1.512177 0.290842,-2.082815 0.196107,-0.5706479 0.468106,-1.032383 0.803264,-1.4052742 0.334606,-0.3734126 0.733451,-0.651937 1.191045,-0.8155677 0.457582,-0.1625985 0.933454,-0.2383856 1.44034,-0.2383856 0.293601,0 0.629844,0.044693 0.997155,0.1254498 0.36728,0.081299 0.71131,0.1992683 1.03869,0.3513214 0.3274,0.1510847 0.59663,0.3166946 0.81712,0.5018952 0.22049,0.1862008 0.33239,0.379925 0.33239,0.5897069 l 0,0.2509423 0.29083,0.2007581 1.27415,-4.6047728 -0.29084,-0.075234 c -0.0653,0.093856 -0.12575,0.1811675 -0.1662,0.2509317 -0.0409,0.070871 -0.1191,0.1003471 -0.24929,0.1003471 -0.0826,0 -0.24484,-0.045757 -0.49856,-0.1505632 C 77.23349,4.6007821 76.90943,4.4687879 76.51777,4.3287595 76.1261,4.189742 75.66077,4.0697938 75.14669,3.9649028 74.63203,3.8599799 74.076948,3.8143289 73.457051,3.8143289 z m 13.793969,0 c -0.7689,0 -1.54945,0.1495524 -2.32668,0.4517004 -0.77666,0.3031376 -1.47522,0.7774188 -2.1051,1.4178207 -0.62988,0.6399017 -1.14453,1.4589704 -1.53729,2.459228 -0.39276,1.0007577 -0.58167,2.1898011 -0.58167,3.5633761 0,1.39723 0.18891,2.586658 0.58167,3.575911 0.39276,0.989659 0.90741,1.792872 1.53729,2.421591 0.62987,0.629515 1.32844,1.089037 2.1051,1.367625 0.77723,0.279557 1.55778,0.414063 2.32668,0.414063 0.76837,0 1.53619,-0.134506 2.31286,-0.414063 0.77724,-0.278588 1.48907,-0.73811 2.11896,-1.367625 0.63041,-0.628719 1.14451,-1.431932 1.53726,-2.421591 0.39278,-0.989253 0.58169,-2.178681 0.58169,-3.575911 0,-1.373575 -0.18891,-2.5626184 -0.58169,-3.5633761 C 92.82735,7.1427993 92.31325,6.3237306 91.68284,5.6838289 91.05295,5.043427 90.34112,4.5691458 89.56388,4.2660082 88.78721,3.9638602 88.01939,3.8143078 87.25102,3.8143078 z m -70.673348,0.1882014 0,0.4140516 c 0.195846,0.023518 0.36725,0.068742 0.498598,0.1380384 0.130068,0.070871 0.19388,0.2328734 0.19388,0.4893279 l 0,13.2622819 c 0,0.255432 -0.06396,0.419553 -0.19388,0.489327 -0.131348,0.07087 -0.302752,0.127621 -0.498598,0.150553 l 0,0.414052 4.653407,0 0,-0.426598 c -0.195836,-0.02352 -0.368511,-0.06725 -0.498598,-0.138007 -0.131319,-0.06948 -0.19387,-0.231979 -0.19387,-0.489327 l 0,-5.332529 5.415101,0 0,5.332529 c 0,0.257348 -0.06317,0.419904 -0.1939,0.489327 -0.130742,0.07087 -0.289165,0.114469 -0.484713,0.138007 l 0,0.426598 4.639533,0 0,-0.414052 c -0.196105,-0.02288 -0.353425,-0.0797 -0.484724,-0.150553 -0.131309,-0.0698 -0.19389,-0.233895 -0.19389,-0.489327 l 0,-13.2622819 c 0,-0.2564545 0.06267,-0.4185634 0.19389,-0.4893279 0.131299,-0.069275 0.288619,-0.1144361 0.484724,-0.1380384 l 0,-0.4140516 -4.639533,0 0,0.4140516 c 0.195548,0.022985 0.353971,0.068742 0.484713,0.1380384 0.130753,0.069807 0.1939,0.2353742 0.1939,0.4893279 l 0,4.3789227 -5.415101,0 0,-4.3789227 c 0,-0.2539537 0.06257,-0.4195743 0.19387,-0.4893279 0.130087,-0.069275 0.302762,-0.1149469 0.498598,-0.1380384 l 0,-0.4140516 z m 15.248174,0 0,0.4140516 c 0.24485,0.023518 0.442613,0.068742 0.581679,0.1380384 0.139056,0.070871 0.207724,0.2328734 0.207724,0.4893279 l 0,13.2622819 c 0,0.255432 -0.06873,0.419553 -0.207724,0.489327 -0.139066,0.07087 -0.336829,0.127621 -0.581679,0.150553 l 0,0.414052 4.847278,0 0,-0.414052 c -0.24486,-0.02288 -0.443745,-0.0797 -0.581669,-0.150553 -0.139056,-0.0698 -0.207744,-0.233895 -0.207744,-0.489327 l 0,-13.2622819 c 0,-0.2564545 0.06873,-0.4185634 0.207744,-0.4893279 0.137924,-0.069275 0.336809,-0.1144361 0.581669,-0.1380384 l 0,-0.4140516 z m 24.444125,0 0,0.4140516 c 0.211633,0.023518 0.318547,0.1415394 0.318547,0.3513213 0,0.1169475 -0.126302,0.606286 -0.38778,1.4554695 -0.261487,0.848694 -0.596644,1.9217058 -0.997143,3.2120442 -0.400541,1.2918602 -0.850921,2.7227272 -1.357256,4.3162022 -0.506336,1.593881 -1.006007,3.214982 -1.495716,4.843181 -0.03317,0.11683 -0.09624,0.205269 -0.19389,0.263488 -0.09803,0.05885 -0.192787,0.08779 -0.290844,0.08779 l 0,0.414052 3.670058,0 0,-0.414052 c -0.04927,0 -0.112403,-0.01447 -0.193873,-0.03767 -0.08257,-0.02341 -0.124641,-0.111754 -0.124641,-0.276023 0,-0.09268 0.03097,-0.241973 0.09684,-0.439155 0.06427,-0.197832 0.139038,-0.407986 0.221561,-0.63989 0.08088,-0.231927 0.161779,-0.471271 0.235459,-0.702654 0.07321,-0.232522 0.132388,-0.426193 0.166185,-0.589707 l 5.678249,0 c 0.04882,0.163514 0.11123,0.357185 0.19389,0.589707 0.08084,0.231383 0.162317,0.470727 0.235425,0.702654 0.07357,0.231904 0.136294,0.442058 0.193892,0.63989 0.05643,0.197182 0.08307,0.346405 0.08307,0.439155 0,0.164269 -0.04377,0.252538 -0.124667,0.276023 -0.08237,0.02298 -0.144563,0.03767 -0.193878,0.03767 l 0,0.414052 4.071712,0 0,-0.414052 c -0.09798,0 -0.19334,-0.02905 -0.290841,-0.08779 -0.09798,-0.05831 -0.161753,-0.146658 -0.19388,-0.263488 -0.1806,-0.604818 -0.426023,-1.363125 -0.720161,-2.258481 C 64.576678,15.441336 64.263121,14.500509 63.928514,13.500656 63.593368,12.499803 63.264853,11.49066 62.931372,10.489349 62.596214,9.488613 62.281567,8.5802 62.003454,7.7540974 61.725355,6.9290164 61.509865,6.2434316 61.338689,5.6963855 61.167491,5.1493288 61.07555,4.8376462 61.07555,4.7678821 c 0,-0.2097819 0.105709,-0.327719 0.31852,-0.3513213 l 0,-0.4140516 z m 60.272489,0 0,0.4140516 c 0.24429,0.023518 0.44261,0.068742 0.58167,0.1380384 0.13906,0.070871 0.20775,0.2328734 0.20775,0.4893279 l 0,13.2622819 c 0,0.255432 -0.0687,0.419553 -0.20775,0.489327 -0.13906,0.07087 -0.33738,0.127621 -0.58167,0.150553 l 0,0.414052 4.84728,0 0,-0.414052 c -0.24486,-0.02288 -0.42987,-0.0797 -0.56782,-0.150553 -0.13903,-0.0698 -0.20773,-0.233895 -0.20773,-0.489327 l 0,-13.2622819 c 0,-0.2564545 0.0687,-0.4185634 0.20773,-0.4893279 0.13795,-0.069275 0.32296,-0.1144361 0.56782,-0.1380384 l 0,-0.4140516 z m 7.04935,0 0,0.4140516 c 0.13016,0.023518 0.25924,0.068742 0.37391,0.1380384 0.11357,0.070871 0.1662,0.2328734 0.1662,0.4893279 l 0,13.2622819 c 0,0.255432 -0.0525,0.419553 -0.1662,0.489327 -0.11463,0.07087 -0.22047,0.127621 -0.31852,0.150553 l 0,0.414052 4.18249,0 0,-0.426598 c -0.18003,-0.02363 -0.33458,-0.06725 -0.45702,-0.138007 -0.12243,-0.06927 -0.18003,-0.232926 -0.18003,-0.489327 l 0,-4.692617 2.35438,0 c 0.0483,0.139954 0.16952,0.463278 0.37393,0.953564 0.20498,0.489753 0.41714,0.994341 0.63707,1.530757 0.2205,0.537554 0.42378,1.038896 0.59555,1.505643 0.17171,0.46681 0.24926,0.761807 0.24926,0.878287 0,0.187201 -0.0697,0.318749 -0.20773,0.376424 -0.13961,0.05885 -0.25926,0.07523 -0.37393,0.07523 l 0,0.426598 4.95806,0 0,-0.414052 c -0.18003,0 -0.35675,-0.07268 -0.51242,-0.213293 -0.1562,-0.139017 -0.26534,-0.303095 -0.34621,-0.489338 l -2.18822,-4.680071 c 0.78387,-0.418573 1.43756,-0.986147 1.95275,-1.718936 0.51464,-0.733216 0.77558,-1.729493 0.77558,-2.986205 0,-1.6045323 -0.36894,-2.8236061 -1.09411,-3.6386631 -0.72571,-0.8145568 -1.70016,-1.2170732 -2.92223,-1.2170732 z m 3.60083,2.8983824 3.32384,0 c 0.73844,0 1.2409,0.1877012 1.49573,0.5520793 0.25372,0.3648677 0.37394,0.815057 0.37394,1.3550799 0,0.6353792 -0.15291,1.1136832 -0.45704,1.4303772 -0.30356,0.317673 -0.70743,0.476782 -1.2326,0.476782 l -3.50387,0 z M 87.25102,7.4906091 c 0.47199,0 0.903,0.1007727 1.30186,0.3011265 0.39886,0.199247 0.75729,0.4767924 1.0664,0.8406598 0.30968,0.3638674 0.54842,0.8020002 0.72018,1.3174416 0.17172,0.516942 0.26311,1.112225 0.26311,1.769143 0,0.657927 -0.0914,1.240611 -0.26311,1.756585 -0.17176,0.516442 -0.4105,0.952978 -0.72018,1.317441 -0.30911,0.363867 -0.66754,0.641871 -1.0664,0.840649 -0.39887,0.200152 -0.82987,0.301127 -1.30186,0.301127 -0.45591,0 -0.89466,-0.10088 -1.30183,-0.301127 -0.40716,-0.198778 -0.75728,-0.476782 -1.0664,-0.840649 -0.30913,-0.364463 -0.54954,-0.800999 -0.72017,-1.317441 -0.17174,-0.515974 -0.26313,-1.098658 -0.26313,-1.756585 0,-0.656918 0.0914,-1.252201 0.26313,-1.769143 0.17063,-0.5154414 0.41104,-0.9535742 0.72017,-1.3174416 0.30912,-0.3638674 0.65924,-0.6414128 1.0664,-0.8406598 0.40717,-0.2002473 0.84592,-0.3011265 1.30183,-0.3011265 z m -28.529706,0.1505526 2.06356,6.1104363 -4.071716,0 z"
     id="path160-8-8-9-6"
     style="fill:#686b61;fill-opacity:1;fill-rule:nonzero;stroke:none" />
</svg>
