<?xml version="1.0" encoding="UTF-8" standalone="no"?>
<!-- Created with Inkscape (http://www.inkscape.org/) -->

<svg
   xmlns:dc="http://purl.org/dc/elements/1.1/"
   xmlns:cc="http://creativecommons.org/ns#"
   xmlns:rdf="http://www.w3.org/1999/02/22-rdf-syntax-ns#"
   xmlns:svg="http://www.w3.org/2000/svg"
   xmlns="http://www.w3.org/2000/svg"
   xmlns:sodipodi="http://sodipodi.sourceforge.net/DTD/sodipodi-0.dtd"
   xmlns:inkscape="http://www.inkscape.org/namespaces/inkscape"
   width="46"
   height="21.000937"
   id="svg2"
   version="1.1"
   inkscape:version="0.48.4 r9939"
   sodipodi:docname="scroll-down.svg">
  <defs
     id="defs4" />
  <sodipodi:namedview
     id="base"
     pagecolor="#ffffff"
     bordercolor="#666666"
     borderopacity="1.0"
     inkscape:pageopacity="0.0"
     inkscape:pageshadow="2"
     inkscape:zoom="9.1229003"
     inkscape:cx="36.146559"
     inkscape:cy="-7.4885216"
     inkscape:document-units="px"
     inkscape:current-layer="layer1"
     showgrid="true"
     fit-margin-top="0"
     fit-margin-left="0"
     fit-margin-right="0"
     fit-margin-bottom="0"
     inkscape:window-width="1440"
     inkscape:window-height="845"
     inkscape:window-x="0"
     inkscape:window-y="30"
     inkscape:window-maximized="1">
    <inkscape:grid
       type="xygrid"
       id="grid2998"
       empspacing="5"
       visible="true"
       enabled="true"
       snapvisiblegridlinesonly="true"
       originx="-408px"
       originy="-565.98625px" />
  </sodipodi:namedview>
  <metadata
     id="metadata7">
    <rdf:RDF>
      <cc:Work
         rdf:about="">
        <dc:format>image/svg+xml</dc:format>
        <dc:type
           rdf:resource="http://purl.org/dc/dcmitype/StillImage" />
        <dc:title></dc:title>
      </cc:Work>
    </rdf:RDF>
  </metadata>
  <g
     inkscape:label="Layer 1"
     inkscape:groupmode="layer"
     id="layer1"
     transform="translate(-408,-465.375)">
    <path
       style="color:#000000;fill:#ffffff;fill-opacity:1;fill-rule:evenodd;stroke:none;stroke-width:1.00000012px;marker:none;visibility:visible;display:inline;overflow:visible;enable-background:accumulate"
       d="m 410,465.375 c -1.108,0 -2,0.892 -2,2 l 0,19 23,0 c -0.53176,0.0165 -1.06113,-0.18613 -1.46875,-0.59375 l -6.9375,-7.0625 c -0.78347,-0.78347 -0.78347,-2.06028 0,-2.84375 0.39174,-0.39174 0.89501,-0.59375 1.40625,-0.59375 0.51124,0 1.01451,0.20201 1.40625,0.59375 L 431,481.46875 436.59375,475.875 c 0.78347,-0.78347 2.06028,-0.78347 2.84375,0 0.78347,0.78347 0.78347,2.06028 0,2.84375 l -6.9375,7.0625 c -0.40762,0.40762 -0.96824,0.61025 -1.5,0.59375 l 23,0 0,-19 c 0,-1.108 -0.892,-2 -2,-2 l -42,0 z"
       id="rect3000"
       inkscape:connector-curvature="0" />
  </g>
</svg>
