<?xml version="1.0" encoding="UTF-8" standalone="no"?>
<!-- Created with Inkscape (http://www.inkscape.org/) -->

<svg
   xmlns:dc="http://purl.org/dc/elements/1.1/"
   xmlns:cc="http://creativecommons.org/ns#"
   xmlns:rdf="http://www.w3.org/1999/02/22-rdf-syntax-ns#"
   xmlns:svg="http://www.w3.org/2000/svg"
   xmlns="http://www.w3.org/2000/svg"
   version="1.1"
   width="459.9697"
   height="96.700722"
   id="svg2">
  <defs
     id="defs4" />
  <metadata
     id="metadata7">
    <rdf:RDF>
      <cc:Work
         rdf:about="">
        <dc:format>image/svg+xml</dc:format>
        <dc:type
           rdf:resource="http://purl.org/dc/dcmitype/StillImage" />
        <dc:title></dc:title>
      </cc:Work>
    </rdf:RDF>
  </metadata>
  <g
     transform="translate(-152.29208,-450.2662)"
     id="layer1">
    <path
       d="m 402.75988,546.08575 c -0.51131,-0.48638 -0.92964,-1.06166 -0.92964,-1.27837 0,-0.53386 1.85065,-2.18297 3.05057,-2.71836 0.53584,-0.23908 1.28472,-0.72511 1.66421,-1.08009 0.98152,-0.9181 2.45426,-1.85846 2.9106,-1.85846 0.21392,0 0.69644,-0.25874 1.07226,-0.57498 0.37583,-0.31623 0.87538,-0.57565 1.11011,-0.57648 0.49374,-0.002 1.26264,-0.48301 2.52387,-1.57973 2.09505,-1.82174 7.03581,-4.62846 8.14767,-4.62846 0.27407,0 0.79378,-0.24862 1.15491,-0.55249 0.36111,-0.30386 1.15227,-0.73718 1.75811,-0.96293 0.60583,-0.22575 1.36027,-0.60751 1.67651,-0.84835 0.31622,-0.24084 0.88545,-0.58351 1.26493,-0.7615 0.37948,-0.17798 1.00046,-0.52967 1.37994,-0.78153 0.37948,-0.25186 0.8452,-0.52525 1.03495,-0.60754 0.18974,-0.0823 1.06945,-0.4577 1.9549,-0.83424 0.88546,-0.37656 1.76517,-0.81324 1.95491,-0.97039 0.18975,-0.15717 0.94528,-0.55576 1.67897,-0.88577 0.73371,-0.33001 1.61342,-0.79526 1.95491,-1.0339 0.34151,-0.23863 0.89362,-0.49969 1.2269,-0.58013 0.57246,-0.13818 3.13097,-1.27972 3.87881,-1.73063 0.18974,-0.11441 0.9142,-0.44234 1.60992,-0.72874 2.17011,-0.89338 4.45358,-2.10624 5.22924,-2.77753 0.40943,-0.35436 1.18564,-0.76086 1.72492,-0.90336 0.53926,-0.14249 1.4462,-0.55286 2.01542,-0.91193 0.56922,-0.35907 1.41429,-0.72244 1.87793,-0.80749 0.46363,-0.0851 1.0846,-0.41387 1.37993,-0.73072 0.61787,-0.66288 2.19124,-1.49315 5.13164,-2.70794 1.13563,-0.46917 2.44934,-1.20046 2.91931,-1.62506 0.47001,-0.4246 1.24926,-0.8783 1.73171,-1.00821 1.20059,-0.32328 3.09427,-1.25825 4.89122,-2.41494 0.82628,-0.53187 1.94045,-1.0936 2.47588,-1.24829 1.15077,-0.33245 3.36676,-1.48776 5.08679,-2.65203 0.67839,-0.4592 1.51557,-0.83294 1.86578,-0.83294 0.35692,0 1.00864,-0.29676 1.48752,-0.67732 0.46875,-0.37252 1.23332,-0.79958 1.69905,-0.94903 0.4657,-0.14945 1.00199,-0.39782 1.19173,-0.55194 0.63084,-0.5124 2.92586,-1.73153 3.25964,-1.73153 0.38079,0 4.41795,-2.03594 5.93992,-2.99553 0.56923,-0.35888 1.62062,-0.87057 2.33645,-1.13707 0.71581,-0.2665 1.43273,-0.64271 1.59317,-0.83601 0.38755,-0.46699 1.46179,-1.0111 1.99619,-1.0111 0.2359,0 1.31897,-0.46573 2.40682,-1.03495 1.08782,-0.56923 2.14258,-1.03496 2.34388,-1.03496 0.20132,0 0.58839,-0.25575 0.86018,-0.56835 0.27181,-0.31259 0.98227,-0.73047 1.57881,-0.9286 0.59655,-0.19814 1.69304,-0.72822 2.43667,-1.17796 0.74362,-0.44973 1.76601,-1.02621 2.27199,-1.28108 0.50598,-0.25486 1.23044,-0.75548 1.60992,-1.11249 0.37949,-0.35702 1.20745,-0.85671 1.83992,-1.11042 0.63246,-0.25373 1.71917,-0.7784 2.41489,-1.16596 0.69571,-0.38755 1.62716,-0.86638 2.06989,-1.06405 0.44274,-0.19768 1.13307,-0.50912 1.53407,-0.6921 0.40102,-0.18298 1.07373,-0.39803 1.49493,-0.47789 0.4212,-0.0798 1.50418,-0.33036 2.40661,-0.55667 2.62797,-0.65905 4.78076,-0.20334 5.48648,1.1614 0.54448,1.05286 0.43542,1.95823 -0.34259,2.84432 -0.37948,0.43221 -0.69057,0.87567 -0.69133,0.98546 -0.003,0.28961 -4.72381,4.9144 -5.01753,4.9144 -0.13611,0 -0.52065,0.35818 -0.85454,0.79595 -0.33391,0.43777 -0.83078,0.86319 -1.10417,0.94538 -0.27338,0.0822 -0.96277,0.5361 -1.532,1.00869 -0.56921,0.47259 -1.35297,1.02355 -1.74165,1.22435 -0.38871,0.20081 -0.84282,0.52908 -1.00915,0.72949 -0.16633,0.20042 -0.64215,0.52561 -1.05739,0.72266 -0.41525,0.19704 -1.35078,0.98288 -2.07897,1.74631 -0.72819,0.76342 -1.74548,1.57135 -2.26068,1.7954 -0.51519,0.22405 -1.50594,0.98832 -2.20166,1.69838 -1.20663,1.23151 -3.57265,2.79781 -5.98234,3.96028 -0.61317,0.2958 -1.30328,0.81631 -1.53357,1.1567 -0.68426,1.01136 -1.98319,2.16491 -2.60143,2.31026 -0.77032,0.1811 -1.80272,0.97277 -3.95102,3.02973 -0.98268,0.94089 -2.09472,1.89805 -2.47126,2.12703 -0.37652,0.22897 -0.86011,0.68423 -1.07467,1.01169 -0.21455,0.32746 -0.84116,0.85971 -1.39245,1.18278 -0.55126,0.32307 -1.00231,0.66461 -1.00231,0.75899 0,0.0944 -0.49161,0.45328 -1.09245,0.79757 -1.49192,0.85489 -4.01742,2.84789 -4.78375,3.77507 -0.53974,0.65302 -0.5844,0.8094 -0.30964,1.08386 0.51743,0.51685 2.83064,0.69141 3.8342,0.28934 0.47118,-0.18878 1.42593,-0.52276 2.12165,-0.74217 1.46621,-0.4624 4.07446,-1.67735 4.26588,-1.98708 0.0721,-0.11662 0.38362,-0.21204 0.69234,-0.21204 0.30869,0 1.05294,-0.25008 1.65385,-0.55574 1.59737,-0.8125 2.77917,-1.28377 3.22776,-1.28714 0.48399,-0.003 3.08551,-0.80759 3.65789,-1.1304 1.04778,-0.59093 2.37674,-1.00415 3.75146,-1.16649 0.82221,-0.0971 2.37464,-0.49549 3.44984,-0.88534 1.0752,-0.38985 2.1929,-0.71237 2.48381,-0.71671 0.29089,-0.004 0.85066,-0.1743 1.24394,-0.37767 0.5182,-0.26798 1.02074,-0.32923 1.82541,-0.22248 0.78906,0.10467 1.30755,0.0453 1.79198,-0.20521 0.3749,-0.19387 1.05233,-0.35249 1.50541,-0.35249 0.45306,0 1.19843,-0.15656 1.65636,-0.34789 0.69534,-0.29053 1.23446,-0.3095 3.26996,-0.11506 1.34054,0.12805 3.00658,0.20856 3.7023,0.17892 1.64175,-0.0699 3.99689,0.82928 5.86888,2.24082 1.71043,1.28973 2.62721,1.5818 4.38085,1.39566 0.7506,-0.0797 2.39967,-0.2198 3.66461,-0.31137 1.26494,-0.0916 2.50688,-0.28184 2.75987,-0.4228 0.61151,-0.34071 4.80638,-0.63239 8.49094,-0.5904 2.04497,0.0233 3.07661,-0.0536 3.30933,-0.24676 0.22804,-0.18925 1.0727,-0.26019 2.59414,-0.21785 1.55857,0.0433 2.49858,-0.0386 3.04069,-0.2651 0.4316,-0.18033 1.39426,-0.34 2.13931,-0.35485 0.74503,-0.0148 2.2343,-0.13948 3.3095,-0.27698 1.0752,-0.13751 2.52413,-0.21966 3.21985,-0.18257 0.69572,0.0371 1.73066,0.0527 2.29989,0.0345 0.56922,-0.0181 2.89786,-0.0663 5.17475,-0.10724 2.77938,-0.0499 4.30901,-0.16966 4.65468,-0.3644 0.99744,-0.56191 5.50873,-0.79485 12.59451,-0.65031 6.42474,0.13106 7.05006,0.18114 9.08456,0.7275 1.2017,0.3227 2.9414,0.72979 3.86603,0.90462 0.9246,0.17483 1.83019,0.4416 2.0124,0.59282 0.39648,0.32906 0.4383,1.27528 0.0665,1.50507 -0.14562,0.09 -2.81311,0.14115 -5.92771,0.11364 -4.36384,-0.0385 -5.89909,0.0248 -6.69236,0.27618 -0.7057,0.22362 -2.2952,0.33599 -5.05427,0.35733 -2.21364,0.0172 -5.68073,0.15022 -7.70463,0.29578 -2.0239,0.14555 -5.59449,0.32947 -7.93462,0.40869 -2.71001,0.0918 -4.50531,0.25382 -4.94477,0.44639 -0.46879,0.20541 -1.53784,0.28388 -3.33484,0.24477 -1.45469,-0.0317 -4.40429,0.0815 -6.55469,0.25139 -2.1504,0.16992 -5.04826,0.33614 -6.43969,0.36937 -3.65796,0.0874 -4.75993,0.19688 -5.38421,0.53512 -0.45305,0.24547 -0.77803,0.24675 -1.77745,0.007 -0.95383,-0.22882 -1.6418,-0.23633 -3.12541,-0.0341 -1.11237,0.15162 -2.97682,0.19983 -4.48974,0.11608 -2.90427,-0.16075 -3.15128,-0.0107 -1.92139,1.16765 0.82595,0.79133 1.12262,2.54456 0.66681,3.94062 -0.39733,1.21689 -1.39089,1.71627 -3.41553,1.71675 -1.98393,4.6e-4 -3.89213,-0.66441 -5.61523,-1.95652 -1.73749,-1.30291 -3.23176,-1.8167 -4.80302,-1.65149 -1.99559,0.20982 -2.49876,0.32782 -4.47876,1.05044 -2.29745,0.83847 -3.38342,0.74483 -4.85208,-0.41836 -0.76265,-0.60402 -0.93709,-0.88593 -0.93709,-1.51425 0,-0.42464 0.12937,-0.8554 0.28748,-0.95726 0.46137,-0.2972 2.72409,-0.7311 3.89625,-0.74714 0.59337,-0.008 1.13914,-0.11228 1.21281,-0.23147 0.0737,-0.11919 0.6231,-0.28748 1.221,-0.374 0.59791,-0.0865 1.22723,-0.26934 1.3985,-0.40628 0.37748,-0.30183 2.44724,-0.64787 4.17338,-0.69774 1.35243,-0.0391 2.82512,-0.52444 2.70297,-0.89085 -0.0408,-0.12248 -0.83449,-0.47054 -1.7637,-0.77347 -1.82394,-0.59462 -5.38899,-0.77133 -6.56221,-0.32527 -0.82766,0.31467 -5.02822,0.92294 -6.43449,0.93175 -0.65926,0.004 -1.36116,0.15422 -1.61337,0.34499 -0.24556,0.18571 -0.79652,0.33767 -1.22439,0.33767 -0.42788,0 -1.54873,0.25874 -2.49076,0.57497 -0.94207,0.31624 -1.91445,0.57498 -2.16089,0.57498 -0.24641,0 -0.86108,0.21527 -1.36588,0.47839 -0.5048,0.26312 -1.10307,0.42008 -1.32952,0.3488 -0.45168,-0.14221 -2.52289,0.74046 -3.45147,1.47087 -0.32769,0.25777 -0.93429,0.46181 -1.37294,0.46181 -0.43225,0 -1.16862,0.19439 -1.63643,0.43197 -0.46777,0.23759 -1.31624,0.64108 -1.88547,0.89664 -0.56922,0.25556 -1.56643,0.73389 -2.21601,1.06295 -0.64961,0.32906 -1.42865,0.59829 -1.73124,0.59829 -0.3026,0 -0.76513,0.15056 -1.02787,0.33458 -0.71351,0.49978 -2.398,1.03822 -3.25989,1.04201 -0.41819,0.002 -1.387,0.31425 -2.15286,0.69423 -1.28892,0.63951 -1.48966,0.67525 -2.6991,0.48047 -1.47409,-0.23739 -3.4612,-1.11148 -3.70858,-1.63133 -0.73026,-1.53459 -1.14359,-2.60898 -1.14359,-2.97254 0,-0.23669 0.25749,-0.88077 0.57221,-1.43128 0.31469,-0.55051 0.57343,-1.23601 0.57497,-1.52333 0.002,-0.3338 0.21239,-0.61792 0.58339,-0.78696 0.31934,-0.1455 0.79778,-0.61594 1.06321,-1.04542 0.31815,-0.51475 0.89168,-0.96179 1.68284,-1.31168 0.66014,-0.29194 1.57539,-0.90597 2.03395,-1.36452 0.45855,-0.45856 1.05701,-0.83374 1.32989,-0.83374 0.50018,0 1.997,-1.50176 2.79784,-2.80711 0.2221,-0.36199 0.58433,-0.72175 0.80496,-0.79946 0.68337,-0.24066 1.8961,-1.23088 1.8961,-1.54819 0,-0.16586 1.097,-0.85767 2.43777,-1.53735 1.45335,-0.73675 2.62061,-1.49256 2.89053,-1.87163 0.25903,-0.36378 0.66871,-0.63582 0.95753,-0.63582 0.29651,0 0.59844,-0.20742 0.73181,-0.50274 0.12486,-0.27651 0.58925,-0.69673 1.03198,-0.93384 0.44273,-0.2371 1.01196,-0.67149 1.26494,-0.9653 0.25298,-0.29382 0.71871,-0.6109 1.03495,-0.70461 0.31624,-0.0937 1.37598,-0.98333 2.35498,-1.97692 0.97898,-0.99359 2.22093,-2.08987 2.75986,-2.43618 0.53893,-0.34631 1.30222,-0.90225 1.69619,-1.23543 0.39398,-0.33318 1.13475,-0.6727 1.64619,-0.75448 0.70212,-0.11227 1.20267,-0.42389 2.04356,-1.27223 0.61252,-0.61794 1.42416,-1.28543 1.80364,-1.48331 0.6887,-0.35913 5.57353,-4.47424 8.38455,-7.0634 1.67369,-1.54159 1.67121,-1.95423 -0.0101,-1.6861 -0.66361,0.10583 -1.2163,0.37725 -1.59716,0.78438 -0.32033,0.3424 -0.94131,0.69941 -1.37993,0.79337 -0.43864,0.094 -0.90103,0.2497 -1.02752,0.34611 -0.1265,0.0964 -0.47672,0.25107 -0.77826,0.34369 -0.30156,0.0926 -1.14694,0.51928 -1.87862,0.94811 -0.73169,0.42883 -1.46149,0.77968 -1.62179,0.77968 -0.16031,0 -0.5321,0.22607 -0.82619,0.50235 -0.71605,0.6727 -1.78709,1.29414 -4.66968,2.70951 -1.32819,0.65214 -2.67363,1.33373 -2.98986,1.51466 -0.55545,0.31777 -2.08763,1.11193 -4.48479,2.32455 -0.63247,0.31995 -1.31107,0.72521 -1.50801,0.90059 -0.49565,0.44137 -8.53821,4.46609 -8.92641,4.46701 -0.17318,4.6e-4 -0.91119,0.36298 -1.64,0.80571 -0.72881,0.44273 -1.46965,0.80496 -1.64634,0.80496 -0.17667,0 -0.56558,0.17116 -0.86427,0.38037 -0.29869,0.20921 -1.46165,0.82747 -2.58439,1.37391 -1.12274,0.54644 -2.85225,1.51372 -3.84339,2.14951 -0.99111,0.63578 -1.97964,1.15597 -2.19667,1.15597 -0.48208,0 -1.24356,0.37915 -1.85933,0.92581 -0.25298,0.22458 -1.13269,0.59382 -1.95491,0.82053 -1.72082,0.47449 -6.2097,2.5138 -6.2097,2.82109 0,0.11359 -0.33636,0.33701 -0.74746,0.49646 -1.52255,0.59057 -3.30672,1.49124 -4.3123,2.17688 -1.26763,0.86433 -3.38569,1.9588 -3.79075,1.9588 -0.16415,0 -0.93111,0.46572 -1.70434,1.03494 -0.77321,0.56923 -1.54625,1.03496 -1.71783,1.03496 -0.38189,0 -2.76718,1.25689 -3.71157,1.95576 -0.37947,0.28083 -1.03117,0.62469 -1.44821,0.76414 -0.41706,0.13946 -1.0261,0.46423 -1.35346,0.72173 -0.32737,0.2575 -0.79779,0.46818 -1.04537,0.46818 -0.24761,0 -0.71334,0.20699 -1.03495,0.45998 -0.32165,0.25298 -0.70803,0.45998 -0.85864,0.45998 -0.15065,0 -0.51548,0.25715 -0.81074,0.57145 -0.29528,0.3143 -0.90841,0.6384 -1.36252,0.72024 -1.06253,0.19147 -1.65607,0.48957 -2.11036,1.05995 -0.20057,0.25185 -1.23553,0.7414 -2.29989,1.0879 -2.14,0.69669 -3.3434,1.28427 -5.34152,2.60813 -0.73507,0.48701 -1.71363,0.94667 -2.17458,1.02148 -0.46096,0.0748 -1.7946,0.68824 -2.96365,1.36319 -1.16904,0.67496 -2.28016,1.2272 -2.46914,1.2272 -0.18899,0 -0.41137,0.10964 -0.49421,0.24367 -0.0828,0.13401 -0.83927,0.58873 -1.68099,1.01048 -3.9211,1.96469 -5.21086,2.67913 -5.76353,3.19259 -0.34288,0.31859 -1.02333,0.61863 -1.59998,0.70552 -0.99265,0.14959 -3.60032,1.77767 -4.23111,2.64167 -0.51219,0.70158 -4.26519,2.78501 -5.01746,2.78538 -0.19932,10e-5 -0.61329,0.26899 -0.91996,0.59754 -0.30667,0.32854 -0.9198,0.78421 -1.36252,1.01257 -0.44273,0.22836 -1.05586,0.68403 -1.36253,1.01257 -0.30666,0.32855 -0.73047,0.59735 -0.94181,0.59735 -0.21133,0 -0.57157,0.20699 -0.80052,0.45998 -0.66069,0.73006 -1.57671,0.58255 -2.63519,-0.42437 z m 135.56888,-25.21209 c 0,-0.79363 -1.60686,-1.51543 -3.21984,-1.44636 -1.72646,0.0739 -1.78472,0.41217 -0.22999,1.33504 0.92915,0.55154 1.37073,0.67121 2.29989,0.62328 0.97032,-0.05 1.14994,-0.13001 1.14994,-0.51196 z m -161.74214,23.23678 c -2.50558,-1.18297 -4.42497,-3.43372 -4.42497,-5.18887 0,-0.72134 0.86495,-2.62291 2.02533,-4.45263 0.75174,-1.18537 1.89247,-2.21814 2.45,-2.21814 0.37546,0 1.21764,0.85382 2.02035,2.04823 0.78931,1.17451 0.38184,3.00436 -0.77579,3.48386 -1.19286,0.4941 -0.82943,1.11322 2.28635,3.895 0.70292,0.62757 0.6128,1.75058 -0.18661,2.32516 -0.99011,0.71165 -2.04419,0.745 -3.39466,0.10739 z m -99.50904,-3.02149 c -0.45367,-0.45367 -0.45538,-0.86596 -0.007,-1.80971 0.67291,-1.41803 1.76482,-2.22295 3.59744,-2.65187 1.27565,-0.29857 1.74606,-0.5178 1.94195,-0.90504 0.52942,-1.04656 1.48109,-1.80302 2.4281,-1.93003 0.55964,-0.0751 1.17708,-0.36184 1.5516,-0.72066 0.34214,-0.32778 1.2313,-0.8101 1.9759,-1.07181 0.92822,-0.32624 1.77709,-0.8677 2.70022,-1.72235 0.89502,-0.82864 1.54238,-1.24653 1.93098,-1.24653 0.34782,0 0.83564,-0.26876 1.20448,-0.6636 0.34094,-0.36498 1.40718,-0.99134 2.36941,-1.39192 0.96224,-0.40059 2.39982,-1.25023 3.19463,-1.8881 1.48353,-1.19062 2.21194,-1.57612 2.97812,-1.57612 0.48519,0 4.59185,-2.26743 4.59185,-2.53531 0,-0.0928 0.33635,-0.30288 0.74746,-0.4668 0.41111,-0.16392 1.02218,-0.48697 1.35794,-0.71787 0.33576,-0.2309 0.82503,-0.41982 1.08726,-0.41982 0.26224,0 1.07422,-0.32667 1.80442,-0.72592 2.3215,-1.26936 2.47121,-1.34112 2.80127,-1.34257 0.17804,-6.8e-4 1.47174,-0.55927 2.87487,-1.24109 1.40313,-0.68181 3.48261,-1.57236 4.62105,-1.97899 1.13845,-0.40663 2.94961,-1.23045 4.02481,-1.83071 1.0752,-0.60027 2.34157,-1.21796 2.81416,-1.37263 0.47259,-0.15468 0.9113,-0.36545 0.97492,-0.46837 0.0636,-0.10293 0.48941,-0.25726 0.94623,-0.34296 0.45682,-0.0857 1.41529,-0.61484 2.12995,-1.17587 0.71465,-0.56103 1.46494,-1.02013 1.66733,-1.0202 0.20238,-8e-5 0.82217,-0.32917 1.37732,-0.73131 0.55513,-0.40215 1.6265,-0.92325 2.38083,-1.15802 3.60208,-1.1211 10.24819,-4.50824 10.24819,-5.22293 0,-0.10868 0.40659,-0.36028 0.90353,-0.55912 0.49694,-0.19883 1.50861,-0.96041 2.24817,-1.69239 0.73955,-0.73198 1.88989,-1.74485 2.5563,-2.25083 0.66641,-0.50597 1.92149,-1.48917 2.78905,-2.18489 0.86758,-0.69572 1.9057,-1.44564 2.30694,-1.66651 0.47613,-0.26207 0.70109,-0.54168 0.64762,-0.80496 -0.0704,-0.34659 -0.32895,-0.39764 -1.83615,-0.36256 -1.07103,0.0249 -2.02659,0.18167 -2.45357,0.40248 -0.38464,0.19891 -1.07085,0.36165 -1.5249,0.36165 -0.45404,0 -1.23128,0.20699 -1.72717,0.45997 -0.4959,0.25299 -1.09296,0.45998 -1.32682,0.45998 -0.23385,0 -0.62608,0.15195 -0.87162,0.33767 -0.24554,0.18572 -0.73774,0.34096 -1.09378,0.34498 -0.35602,0.004 -1.13223,0.20248 -1.72491,0.44101 -1.0691,0.43026 -2.88313,0.93788 -4.8724,1.36343 -1.35144,0.28911 -6.49495,2.01684 -7.81964,2.62665 -0.9988,0.45979 -3.51453,1.47129 -5.39085,2.16749 -0.49834,0.18491 -1.48154,0.59704 -2.1849,0.91583 -0.70335,0.3188 -1.53756,0.68897 -1.8538,0.8226 -0.31623,0.13363 -1.0407,0.49374 -1.60992,0.80024 -0.56922,0.30651 -1.50068,0.76092 -2.06991,1.0098 -0.56922,0.24889 -1.29368,0.60171 -1.60992,0.78405 -0.31623,0.18235 -0.83371,0.44694 -1.14995,0.58799 -3.35095,1.4946 -4.37661,2.43616 -3.86851,3.55131 0.29238,0.64169 -0.0544,1.26677 -0.70193,1.26528 -1.04808,-0.002 -3.46257,-2.25041 -3.47295,-3.23348 -0.008,-0.75483 3.35196,-4.35529 4.06434,-4.35529 0.26009,0 0.60274,-0.15645 0.76143,-0.34767 0.1587,-0.19121 0.71472,-0.53662 1.2356,-0.76758 0.5209,-0.23095 1.08473,-0.58669 1.25296,-0.79052 0.16824,-0.20383 0.63397,-0.46906 1.03495,-0.58941 3.35262,-1.00618 4.30276,-1.36137 5.1403,-1.92156 0.52877,-0.35366 1.02618,-0.64302 1.10535,-0.64302 0.0792,0 0.77931,-0.31523 1.55585,-0.70052 0.77654,-0.38529 1.88331,-0.76343 2.45948,-0.84033 0.57617,-0.0769 1.57343,-0.43438 2.21613,-0.79441 0.6427,-0.36003 1.47251,-0.6546 1.84402,-0.6546 0.37151,0 1.0671,-0.26612 1.54576,-0.59137 0.47865,-0.32525 1.2435,-0.65194 1.69967,-0.72596 0.45616,-0.074 1.49327,-0.48063 2.30467,-0.90356 0.81141,-0.42293 1.70063,-0.769 1.97605,-0.76904 0.27542,-4e-5 1.51407,-0.36227 2.75254,-0.80496 1.23847,-0.44269 2.54408,-0.8049 2.90134,-0.8049 0.35726,0 0.8964,-0.19103 1.19806,-0.42452 0.31939,-0.24719 1.98951,-0.7362 3.99833,-1.17067 1.89741,-0.4104 3.91557,-0.96746 4.48479,-1.23793 1.48085,-0.70362 5.95655,-0.6611 7.82232,0.0743 0.69185,0.27271 1.33492,0.61689 1.42905,0.76486 0.0941,0.14797 0.17272,0.82566 0.17466,1.50598 0.004,1.49777 -1.02656,3.50221 -2.15273,4.186 -0.80564,0.48916 -1.89624,1.4076 -3.60929,3.03954 -0.63671,0.60655 -1.69571,1.45011 -2.35334,1.87456 -0.65762,0.42446 -1.55791,1.15573 -2.00064,1.62506 -0.44273,0.46933 -1.24481,1.04515 -1.78242,1.27961 -1.13367,0.49443 -1.32028,1.1326 -0.33118,1.1326 0.35546,0 1.38156,-0.36223 2.28025,-0.80496 0.89867,-0.44273 1.95469,-0.80496 2.3467,-0.80496 0.39201,0 0.89245,-0.10364 1.1121,-0.23031 1.15198,-0.66435 3.63198,-1.6096 4.22301,-1.6096 0.37175,0 1.03524,-0.15014 1.47441,-0.33364 0.43918,-0.1835 1.75542,-0.49672 2.92498,-0.69605 1.16956,-0.19933 2.64394,-0.46205 3.27642,-0.58382 1.71581,-0.33034 6.59167,-0.44868 7.12965,-0.17304 0.92682,0.47484 1.47812,1.39455 1.48452,2.47651 0.006,1.02101 -0.0191,1.0551 -1.86049,2.52988 -1.02664,0.82221 -2.44307,2.03974 -3.14764,2.70561 -0.83934,0.79324 -1.60255,1.29183 -2.21355,1.44607 -1.46427,0.3696 -2.72739,0.95989 -3.27892,1.53234 -0.27857,0.28913 -0.62216,0.52569 -0.76352,0.52569 -0.43908,0 -2.11565,1.26658 -3.60293,2.72187 -1.00962,0.98789 -1.71127,1.47002 -2.41488,1.65934 -1.04598,0.28144 -4.09664,1.98569 -4.09664,2.28859 0,0.32199 -3.08662,2.70306 -3.9899,3.07788 -0.48678,0.20198 -1.08743,0.62452 -1.33478,0.93898 -0.24734,0.31445 -0.85938,0.69447 -1.36007,0.84448 -1.05984,0.31754 -1.43022,0.68034 -1.22923,1.20411 0.10288,0.26811 0.43416,0.37412 1.16903,0.37412 0.56401,0 1.23536,0.11234 1.49191,0.24963 0.33883,0.18134 0.97963,0.17235 2.34226,-0.0329 1.03171,-0.15538 2.23806,-0.30826 2.68079,-0.33973 0.44273,-0.0315 1.23421,-0.17304 1.75884,-0.31461 0.68307,-0.18433 1.43393,-0.18994 2.64487,-0.0197 2.20517,0.30988 2.44523,0.39518 2.61469,0.92911 0.35259,1.11091 -0.697,2.04231 -2.97633,2.64121 -2.81075,0.7385 -3.74861,1.01671 -4.94261,1.46615 -1.04956,0.39507 -1.66654,0.45699 -3.92127,0.39353 -3.16612,-0.0891 -4.88907,-0.55803 -5.46242,-1.48667 -0.20751,-0.33611 -0.78473,-0.99814 -1.28271,-1.47119 -0.87267,-0.82898 -0.89958,-0.89894 -0.74423,-1.93486 0.256,-1.70719 2.27892,-4.21565 4.84272,-6.0051 1.13504,-0.79222 2.4027,-1.59679 2.81701,-1.78794 0.41431,-0.19115 1.42993,-0.81078 2.25693,-1.37697 0.82699,-0.56618 1.72042,-1.02943 1.98538,-1.02943 0.28821,0 1.01418,-0.55435 1.8071,-1.37992 0.72895,-0.75897 1.5147,-1.38125 1.74611,-1.38285 0.59432,-0.004 3.02769,-1.27367 3.6289,-1.89328 0.27681,-0.28528 0.80666,-0.6969 1.17745,-0.9147 0.37079,-0.2178 1.17707,-0.76115 1.79172,-1.20744 0.6786,-0.49271 1.38409,-0.81143 1.79611,-0.81143 0.82058,0 2.72107,-1.49478 2.72107,-2.14019 0,-0.38723 -0.12727,-0.4176 -1.20745,-0.28808 -2.21616,0.2657 -4.18859,0.63986 -5.06441,0.96069 -0.47691,0.1747 -1.12913,0.31763 -1.44937,0.31763 -0.32024,0 -0.96499,0.19358 -1.43277,0.43017 -1.40005,0.70809 -4.5554,1.64856 -8.67016,2.58417 -1.26493,0.28762 -2.66059,0.71026 -3.10145,0.9392 -0.44085,0.22894 -0.95098,0.41626 -1.13361,0.41626 -0.18263,0 -0.64989,0.0963 -1.03836,0.21396 -0.38846,0.11768 -1.32726,0.39016 -2.08623,0.6055 -0.75896,0.21534 -1.74217,0.52636 -2.18489,0.69113 -0.44273,0.16478 -1.37419,0.42214 -2.06991,0.5719 -0.69571,0.14977 -1.94591,0.57044 -2.77821,0.93482 -0.8323,0.36438 -1.71718,0.66251 -1.96641,0.66251 -0.24922,0 -0.55145,0.093 -0.67162,0.20673 -0.12017,0.1137 -1.0982,0.59951 -2.1734,1.07957 -1.07519,0.48006 -2.31714,1.14972 -2.75987,1.48814 -0.44273,0.33841 -1.34031,0.88525 -1.99462,1.21519 -0.65431,0.32993 -1.55329,0.84664 -1.99772,1.14824 -0.44444,0.30161 -1.21975,0.6142 -1.72292,0.69466 -0.50317,0.0805 -1.44388,0.4311 -2.09047,0.77921 -0.64658,0.3481 -2.07854,1.12189 -3.18213,1.71954 -1.10359,0.59765 -2.33282,1.25886 -2.73162,1.46937 -0.3988,0.2105 -0.83643,0.6271 -0.97252,0.92577 -0.13608,0.29868 -0.41026,0.54304 -0.60927,0.54304 -0.19902,0 -0.74458,0.19843 -1.21238,0.44093 -0.46779,0.24252 -1.10926,0.55357 -1.4255,0.69125 -0.31623,0.13768 -1.24769,0.76664 -2.0699,1.3977 -0.82221,0.63106 -1.75367,1.26236 -2.0699,1.4029 -0.31623,0.14053 -1.26007,0.60683 -2.09742,1.03623 -0.83734,0.4294 -1.68323,0.78072 -1.87976,0.78072 -0.19652,0 -0.64987,0.24458 -1.00744,0.5435 -0.35756,0.29893 -0.8976,0.62103 -1.20008,0.71579 -0.30249,0.0948 -1.02696,0.46928 -1.60993,0.83228 -0.58297,0.36301 -1.30499,0.76744 -1.6045,0.89875 -0.29949,0.1313 -0.80505,0.44364 -1.12346,0.69411 -0.3184,0.25045 -0.73825,0.45538 -0.93298,0.45538 -0.19474,0 -1.18985,0.43067 -2.21138,0.95703 -1.02152,0.52637 -2.56881,1.14033 -3.43842,1.36437 -0.97332,0.25077 -1.81804,0.63435 -2.19747,0.99788 -0.33902,0.32479 -0.73215,0.59053 -0.87364,0.59053 -0.14149,0 -0.54981,0.24119 -0.90738,0.53597 -0.35756,0.29479 -1.16758,0.66984 -1.80005,0.83346 -2.72386,0.70465 -5.68667,1.94458 -6.95115,2.90904 -0.68718,0.52414 -3.1797,1.47126 -3.87187,1.47126 -0.16424,0 -0.46123,-0.16264 -0.66001,-0.36141 z m -115.47094,-5.8617 c -2.83503,-0.5045 -3.80778,-0.79691 -5.02586,-1.51081 -0.7414,-0.43452 -1.68563,-0.93111 -2.09828,-1.10353 -1.12835,-0.47145 -2.19042,-2.71422 -2.19042,-4.62548 0,-0.99057 0.10602,-1.51803 0.34498,-1.71635 0.18974,-0.15747 0.34499,-0.55825 0.34499,-0.89062 1e-5,-0.475 0.30759,-0.83091 1.43743,-1.6633 1.86462,-1.37372 1.96799,-1.42854 4.54229,-2.40874 1.20168,-0.45756 2.28839,-0.91179 2.41488,-1.00939 0.1265,-0.0976 1.0062,-0.41214 1.95491,-0.69898 0.9487,-0.28683 2.18982,-0.7661 2.75804,-1.06504 0.56821,-0.29895 1.14387,-0.54354 1.27923,-0.54354 0.13537,0 0.70541,-0.2226 1.26677,-0.49466 0.56136,-0.27207 1.79686,-0.68813 2.74557,-0.92457 0.94871,-0.23644 2.2424,-0.68207 2.87487,-0.99028 0.63247,-0.30823 1.67208,-0.70826 2.31024,-0.88896 1.15681,-0.32757 6.1663,-2.2309 8.66626,-3.29272 2.64949,-1.12532 6.17355,-2.2351 10.0675,-3.1704 0.69572,-0.16711 1.78241,-0.51382 2.41488,-0.77046 0.63247,-0.25665 1.71029,-0.68883 2.39516,-0.96042 0.68487,-0.27158 1.45823,-0.643 1.7186,-0.82536 0.26036,-0.18236 0.85,-0.33156 1.31032,-0.33156 0.49592,0 1.63685,-0.37485 2.80009,-0.91996 1.07972,-0.50598 2.13312,-0.91996 2.34088,-0.91996 0.20777,0 0.7908,-0.21072 1.29563,-0.46826 0.50483,-0.25755 2.12081,-0.78061 3.59108,-1.16235 2.63975,-0.6854 3.82076,-1.14175 4.09244,-1.58135 0.0766,-0.12396 0.57477,-0.34131 1.10703,-0.48301 0.53226,-0.1417 1.12299,-0.39077 1.31273,-0.55349 0.65313,-0.56011 1.81854,-1.04129 2.522,-1.04129 0.41874,0 1.19369,-0.32302 1.90883,-0.79566 0.66215,-0.43762 1.63715,-0.86378 2.16667,-0.94701 0.56904,-0.0894 1.17329,-0.37541 1.47753,-0.69926 0.28311,-0.30136 0.65401,-0.54793 0.82422,-0.54793 0.34087,0 2.0272,-1.01098 2.22785,-1.33564 0.18144,-0.29359 -1.76201,-2.88774 -2.66179,-3.55299 -0.41837,-0.30933 -1.58609,-0.96395 -2.59493,-1.45474 -1.00884,-0.49078 -2.26255,-1.21925 -2.78602,-1.61882 -0.52347,-0.39957 -1.17053,-0.79593 -1.43791,-0.88079 -0.26738,-0.0849 -0.91225,-0.5103 -1.43304,-0.94541 -0.5208,-0.43511 -1.08022,-0.79111 -1.24319,-0.79111 -0.16296,0 -0.86224,-0.66296 -1.55395,-1.47324 -1.09618,-1.28408 -1.27683,-1.63646 -1.40706,-2.74439 -0.0822,-0.69914 -0.0506,-1.53104 0.0702,-1.84868 0.33793,-0.88884 4.29157,-4.51318 4.92323,-4.51318 0.14802,0 0.67166,-0.21575 1.16363,-0.47943 1.00989,-0.54127 3.69459,-1.52331 5.0784,-1.85765 0.50598,-0.12225 1.54093,-0.38031 2.29989,-0.57348 0.75897,-0.19316 1.94916,-0.43602 2.64488,-0.53968 0.69572,-0.10365 1.57542,-0.29256 1.9549,-0.41978 0.37949,-0.12723 1.31094,-0.28911 2.0699,-0.35972 0.75897,-0.0706 1.94917,-0.28718 2.64488,-0.48125 0.69572,-0.19406 1.88591,-0.45576 2.64488,-0.58154 0.75896,-0.12579 2.05265,-0.38382 2.87486,-0.5734 3.92518,-0.90506 6.82912,-1.36316 12.07443,-1.90474 0.88546,-0.0914 1.7566,-0.26015 1.93589,-0.37494 0.17928,-0.11479 1.00724,-0.28506 1.83991,-0.37838 1.94399,-0.21786 5.65111,-0.82583 7.58999,-1.24477 1.36215,-0.29432 3.09772,-0.55622 8.52826,-1.28692 0.9487,-0.12765 2.08715,-0.37308 2.52988,-0.54542 0.44273,-0.17233 2.35596,-0.43827 4.25163,-0.59096 3.70129,-0.29816 7.30454,-0.78309 7.71817,-1.03873 0.27829,-0.17199 2.05838,-0.42722 5.62436,-0.80642 1.26495,-0.13451 2.71388,-0.43655 3.21985,-0.67121 0.56143,-0.26037 1.76071,-0.48772 3.07726,-0.58335 1.18651,-0.0862 3.10117,-0.41206 4.25479,-0.72414 1.15363,-0.31209 2.9208,-0.66851 3.92704,-0.79202 1.00624,-0.12352 2.13471,-0.37683 2.50772,-0.56291 0.373,-0.18607 1.13481,-0.33832 1.69292,-0.33832 0.5581,0 1.21214,-0.10565 1.4534,-0.23477 0.61494,-0.3291 2.50709,-0.68554 4.93584,-0.92978 2.984,-0.30009 4.73171,-0.58675 5.51974,-0.90535 0.71522,-0.28918 2.21555,-0.54907 5.17475,-0.89639 0.94871,-0.11135 2.50113,-0.46242 3.44984,-0.78018 1.51444,-0.50723 3.25491,-0.76872 6.55468,-0.9848 1.73128,-0.11336 4.16996,-0.53513 5.28705,-0.9144 1.69446,-0.57528 7.21585,-0.59431 8.67858,-0.0299 0.92324,0.35624 1.12148,0.54604 1.32116,1.26493 0.1292,0.4652 0.23549,1.03208 0.23619,1.25972 0.002,0.83902 -0.72933,1.78498 -1.90108,2.45699 -1.49365,0.85661 -2.43122,0.89194 -3.15739,0.11897 -0.64769,-0.68944 -1.36314,-0.72042 -4.71478,-0.20417 -1.26493,0.19483 -2.76562,0.3754 -3.33484,0.40128 -0.56922,0.0258 -1.15782,0.12355 -1.30798,0.21708 -0.15017,0.0935 -1.10711,0.27464 -2.12653,0.40247 -1.01942,0.12782 -2.65598,0.43463 -3.63678,0.6818 -0.98081,0.24715 -2.07304,0.45097 -2.42718,0.45291 -0.35413,0.002 -0.95704,0.16547 -1.3398,0.3634 -0.38274,0.19793 -1.28318,0.46584 -2.00098,0.59536 -0.71779,0.12952 -1.82255,0.34008 -2.45502,0.46792 -0.63248,0.12784 -1.77092,0.25599 -2.52988,0.28478 -0.75897,0.0288 -1.71116,0.22552 -2.11598,0.43716 -0.40483,0.21164 -1.21372,0.38479 -1.79754,0.38479 -0.58381,0 -1.26525,0.10905 -1.51429,0.24233 -0.24904,0.13329 -1.59903,0.39293 -2.99997,0.57701 -1.40095,0.18406 -2.65664,0.40231 -2.79041,0.48498 -0.13378,0.0827 -0.9245,0.22824 -1.75718,0.32348 -4.1425,0.47379 -6.28099,0.84663 -8.52861,1.48691 -0.56923,0.16216 -1.91466,0.35861 -2.98986,0.43656 -2.23973,0.16237 -4.19535,0.47937 -5.90008,0.95638 -0.65191,0.18242 -2.61833,0.48215 -4.3698,0.66607 -3.64298,0.38256 -6.25146,0.75544 -6.54244,0.93528 -0.3664,0.22645 -6.97448,1.24427 -8.09912,1.24749 -0.60916,0.002 -1.3233,0.11862 -1.58698,0.25973 -0.61661,0.33 -3.08865,0.71354 -5.04345,0.78249 -0.84055,0.0297 -1.64848,0.1282 -1.7954,0.21899 -0.43769,0.27051 -3.03851,0.64666 -8.63574,1.24896 -1.72754,0.1859 -3.62813,0.61567 -4.94477,1.11813 -0.31623,0.12068 -1.76516,0.34417 -3.21984,0.49664 -3.11619,0.32661 -5.01507,0.63872 -6.4397,1.05848 -0.87899,0.25899 -3.01382,0.53777 -5.28974,0.69077 -2.08685,0.1403 -3.90787,0.45893 -4.59978,0.80484 -0.44273,0.22133 -1.99517,0.57517 -3.44984,0.7863 -1.69017,0.24532 -3.10148,0.59739 -3.90982,0.97537 -0.69571,0.32531 -2.04115,0.8301 -2.98986,1.12173 -4.81464,1.48005 -5.78597,1.96827 -5.37291,2.70062 0.57308,1.01607 2.58298,2.76598 4.16644,3.62749 0.97979,0.53308 2.10011,1.20458 2.48959,1.49221 0.38947,0.28764 1.37267,0.83991 2.18489,1.22726 0.98662,0.47053 1.97293,1.2103 2.97169,2.2289 0.82221,0.83854 1.96065,1.98108 2.52988,2.53898 1.01095,0.99084 1.03486,1.04795 1.03117,2.46235 -0.003,1.33698 -0.07,1.52611 -0.86778,2.46726 -1.09945,1.29703 -3.38295,3.20374 -3.83907,3.20559 -0.19202,6.9e-4 -0.65961,0.17047 -1.0391,0.37708 -1.34942,0.73475 -3.22838,1.63047 -3.79037,1.80693 -0.31379,0.0985 -0.83126,0.36649 -1.14994,0.59548 -0.31869,0.229 -1.45198,0.63541 -2.51843,0.90314 -1.06644,0.26773 -2.51538,0.77767 -3.21984,1.13319 -1.84552,0.93137 -5.3423,2.21777 -7.60555,2.79793 -1.0752,0.2756 -2.33889,0.6931 -2.80821,0.92775 -0.46931,0.23466 -1.1546,0.42666 -1.52286,0.42666 -0.36827,0 -1.7437,0.51256 -3.05652,1.13902 -1.31282,0.62646 -2.85268,1.21022 -3.42189,1.29722 -0.56923,0.087 -1.46306,0.40534 -1.98629,0.70743 -0.52324,0.30208 -1.62078,0.68931 -2.439,0.8605 -0.81822,0.1712 -1.75293,0.48507 -2.07714,0.69751 -0.32422,0.21243 -1.50356,0.58157 -2.62077,0.8203 -1.15244,0.24627 -2.71492,0.78745 -3.6114,1.25086 -0.86906,0.44923 -1.74877,0.81628 -1.9549,0.81566 -0.20614,-7e-4 -0.84053,0.14809 -1.40974,0.3305 -0.56923,0.1824 -1.86292,0.55284 -2.87486,0.82321 -1.01196,0.27036 -2.82312,0.93225 -4.02482,1.47086 -1.20169,0.5386 -3.01286,1.17367 -4.0248,1.41126 -1.01196,0.23758 -2.04691,0.5531 -2.2999,0.70116 -0.25298,0.14804 -0.74077,0.33426 -1.08397,0.41379 -0.34319,0.0795 -1.24032,0.50583 -1.99361,0.94732 -0.75328,0.44149 -1.51028,0.8027 -1.68221,0.8027 -0.17194,0 -0.51676,0.14052 -0.76627,0.31227 -0.24951,0.17174 -0.86763,0.43905 -1.37361,0.59402 -0.90899,0.27842 -1.55353,0.55076 -4.02481,1.70058 -0.69571,0.3237 -1.84704,0.84574 -2.55851,1.16008 -1.012,0.44711 -1.32919,0.7126 -1.45723,1.21966 -0.14325,0.56735 -0.0416,0.7535 0.81582,1.49357 0.5387,0.46499 1.40144,1.02001 1.9172,1.23336 0.51576,0.21337 1.32177,0.5454 1.79114,0.73784 0.56862,0.23314 1.16813,0.29957 1.79658,0.19908 0.53186,-0.0851 1.33795,-0.0326 1.84835,0.12036 0.76088,0.22797 0.96941,0.21393 1.30826,-0.0881 0.2545,-0.22682 1.08142,-0.41422 2.24303,-0.50832 2.15563,-0.17462 3.85157,-0.52147 4.69062,-0.95929 0.32952,-0.17195 1.06485,-0.31777 1.63407,-0.32406 0.56923,-0.007 1.50069,-0.11258 2.06991,-0.23621 0.56922,-0.12363 1.44893,-0.28305 1.95491,-0.35429 0.50597,-0.0713 1.31015,-0.27605 1.78706,-0.45517 0.47692,-0.17912 1.13575,-0.32567 1.46407,-0.32567 0.60762,0 2.34898,-0.50006 3.71384,-1.06649 0.4154,-0.17239 1.03636,-0.31416 1.37994,-0.31504 0.74137,-0.002 3.89849,-1.04133 4.38178,-1.44263 0.18876,-0.15673 1.06286,-0.29185 1.97926,-0.30596 1.11107,-0.0171 1.9869,-0.17818 2.71136,-0.49865 0.73096,-0.32333 2.22242,-0.59467 4.70579,-0.85612 2.76095,-0.29066 3.91234,-0.5128 4.78562,-0.92331 0.79562,-0.374 2.42549,-0.72782 5.28975,-1.14834 2.27689,-0.33428 4.45028,-0.76962 4.82977,-0.96742 0.37948,-0.19781 1.29823,-0.43902 2.04166,-0.53602 0.77349,-0.10094 1.63033,-0.38239 2.00309,-0.65798 0.43772,-0.32362 0.99637,-0.4816 1.70305,-0.4816 0.57841,0 1.4232,-0.15524 1.87731,-0.34498 1.64739,-0.68832 3.29937,-0.22118 3.29937,0.933 0,0.59467 -0.31081,0.94364 -1.83202,2.05686 -0.51856,0.37948 -1.24404,0.92705 -1.61217,1.21682 -0.36813,0.28978 -1.27034,0.63566 -2.00491,0.76861 -0.73456,0.13296 -1.9048,0.3839 -2.60052,0.55764 -1.26824,0.31671 -6.92847,1.32331 -9.08457,1.61557 -0.63246,0.0857 -1.42941,0.29768 -1.77099,0.471 -0.34158,0.17331 -0.89174,0.31512 -1.22256,0.31512 -0.33083,0 -0.7897,0.10071 -1.01969,0.2238 -0.22999,0.12309 -1.59449,0.3928 -3.03224,0.59936 -1.43773,0.20656 -2.71238,0.46808 -2.83255,0.58116 -0.12016,0.11309 -0.58593,0.2056 -1.03504,0.2056 -1.50763,0 -5.29221,0.92783 -5.96204,1.46165 -0.17375,0.13848 -0.89822,0.31884 -1.60992,0.40082 -0.71172,0.082 -1.86325,0.3055 -2.55897,0.49672 -0.69572,0.19123 -1.78105,0.42137 -2.41186,0.51144 -0.6308,0.0901 -1.45876,0.32515 -1.83991,0.52241 -0.67181,0.3477 -3.15016,0.75557 -5.09545,0.83857 -0.52394,0.0223 -1.1161,0.17632 -1.31592,0.34215 -0.41647,0.34564 -1.53927,0.6624 -3.38714,0.95556 -0.70723,0.1122 -1.58694,0.32619 -1.9549,0.47554 -0.36797,0.14935 -1.13475,0.35369 -1.70398,0.45407 -0.56922,0.10039 -1.55243,0.28387 -2.18489,0.40774 -1.55907,0.30533 -5.3096,0.45069 -6.4397,0.24959 z"
       id="path2996"
       style="fill:#ffffff" />
  </g>
</svg>
